<svg width="370" height="293" viewBox="0 0 370 293" fill="none" xmlns="http://www.w3.org/2000/svg">
<path d="M244 142.212C252.837 142.212 260 149.375 260 158.212V292.986H110V158.212C110 149.375 117.163 142.212 126 142.212H244Z" fill="#FF6C6C"/>
<path d="M244 142.212C252.837 142.212 260 149.375 260 158.212V292.285H185V142.212H244Z" fill="#E63950"/>
<path d="M0 198.946C0 190.11 7.16344 182.946 16 182.946H110V293H16C7.16344 293 0 285.837 0 277V198.946Z" fill="#E63950"/>
<path d="M370 222.529C370 213.693 362.837 206.529 354 206.529H260V292.285H354C362.837 292.285 370 285.122 370 276.285V222.529Z" fill="#AE2538"/>
<path d="M163.656 83.6079H163.654C138.48 83.6079 118 63.1126 118 37.9199V21.2509C118 19.098 119.745 17.3525 121.896 17.3525H146.931C149.083 17.3525 150.827 19.098 150.827 21.2509C150.827 23.4039 149.083 25.1493 146.931 25.1493H125.793V37.9199C125.793 58.8132 142.777 75.8109 163.654 75.8109C165.806 75.8109 167.551 77.5564 167.551 79.7093C167.551 81.8623 165.808 83.6079 163.656 83.6079ZM205.349 83.6079C203.197 83.6079 201.45 81.8625 201.45 79.7096C201.45 77.5566 203.192 75.8112 205.344 75.8112H205.349C226.224 75.8112 243.207 58.8134 243.207 37.9202V25.1493H222.069C219.917 25.1493 218.173 23.4039 218.173 21.2509C218.173 19.098 219.917 17.3525 222.069 17.3525H247.104C249.255 17.3525 251 19.098 251 21.2509V37.9199C251 63.1126 230.521 83.6079 205.349 83.6079Z" fill="#FFAA3F"/>
<path d="M222.034 9H146.931C144.779 9 143.035 10.7454 143.035 12.8984V50.4788C143.035 58.7421 145.17 65.6745 149.561 71.6717C158.278 83.5779 172.367 87.126 172.242 96.3579C172.242 105.662 151.38 106.384 151.38 121.464C151.38 123.617 153.124 125.362 155.276 125.362H213.689C215.84 125.362 217.585 123.617 217.585 121.464C217.585 106.384 196.723 105.662 196.723 96.3579C196.598 87.126 210.686 83.5779 219.404 71.6717C223.795 65.6745 225.93 58.7421 225.93 50.4788V12.8984C225.93 10.7454 224.185 9 222.034 9Z" fill="#FFD316"/>
<path d="M217.585 121.464C217.585 106.384 196.723 105.662 196.723 96.3579C196.598 87.126 210.686 83.5779 219.404 71.6717C223.795 65.6745 225.93 58.7421 225.93 50.4788V12.8984C225.93 10.7454 224.185 9 222.033 9H184.483V125.362H213.689C215.84 125.362 217.585 123.617 217.585 121.464Z" fill="#FFAA3F"/>
<path d="M208.035 42.8223C206.941 39.4544 203.951 37.1447 200.417 36.9386L194.562 36.5976L192.43 31.1329C191.142 27.834 188.022 25.7021 184.483 25.7021C180.943 25.7021 177.823 27.8338 176.536 31.1326L174.403 36.5976L168.548 36.9386C165.014 37.1447 162.024 39.4541 160.93 42.8223C159.836 46.1908 160.899 49.8178 163.637 52.0622L168.173 55.7808L166.688 61.4563C165.792 64.8822 167.063 68.4412 169.927 70.5234C172.791 72.6047 176.567 72.7146 179.546 70.8031L184.483 67.6363L189.419 70.8031C192.399 72.7146 196.175 72.6049 199.039 70.5234C201.903 68.4412 203.174 64.8822 202.278 61.4563L200.793 55.7808L205.328 52.0622C208.066 49.8178 209.129 46.191 208.035 42.8223Z" fill="#FFAA3F"/>
<path d="M199.038 70.5234C201.903 68.4412 203.174 64.8822 202.278 61.4563L200.793 55.7808L205.328 52.0623C208.066 49.8178 209.129 46.191 208.035 42.8223C206.941 39.4544 203.951 37.1447 200.417 36.9386L194.563 36.5976L192.43 31.1329C191.142 27.834 188.023 25.7021 184.483 25.7021V67.6363L189.419 70.8031C192.399 72.7143 196.175 72.6047 199.038 70.5234Z" fill="#FF8A53"/>
<path d="M226.243 138.165H142.721C140.569 138.165 138.824 136.42 138.824 134.267V121.463C138.824 119.31 140.569 117.564 142.721 117.564H226.243C228.395 117.564 230.139 119.31 230.139 121.463V134.267C230.139 136.42 228.395 138.165 226.243 138.165Z" fill="#FFAA3F"/>
<path d="M230.14 134.267V121.463C230.14 119.31 228.395 117.564 226.243 117.564H184.483V138.165H226.243C228.395 138.165 230.14 136.42 230.14 134.267Z" fill="#FF8A53"/>
<path d="M234.55 142.065H134.413C132.261 142.065 130.517 140.32 130.517 138.167C130.517 136.014 132.261 134.269 134.413 134.269H234.55C236.702 134.269 238.447 136.014 238.447 138.167C238.447 140.32 236.702 142.065 234.55 142.065Z" fill="#344779"/>
<path d="M238.448 138.167C238.448 136.014 236.703 134.269 234.551 134.269H184.483V142.065H234.552C236.703 142.065 238.448 140.32 238.448 138.167Z" fill="#0C1638"/>
<path d="M189.344 221.364V265H180.118V230.121H179.862L169.869 236.385V228.203L180.672 221.364H189.344Z" fill="#FFD316"/>
</svg>
