<svg width="370" height="293" viewBox="0 0 370 293" fill="none" xmlns="http://www.w3.org/2000/svg">
<path d="M244 142.212C252.837 142.212 260 149.375 260 158.212V292.986H110V158.212C110 149.375 117.163 142.212 126 142.212H244Z" fill="#FF6C6C"/>
<path d="M244 142.212C252.837 142.212 260 149.375 260 158.212V292.285H185V142.212H244Z" fill="#E63950"/>
<path d="M0 198.946C0 190.11 7.16344 182.946 16 182.946H110V293H16C7.16344 293 0 285.837 0 277V198.946Z" fill="#E63950"/>
<path d="M370 222.529C370 213.693 362.837 206.529 354 206.529H260V292.285H354C362.837 292.285 370 285.122 370 276.285V222.529Z" fill="#AE2538"/>
<path d="M40.0884 138.061H40.0868C20.8666 138.061 5.22974 122.413 5.22974 103.178V90.4511C5.22974 88.8073 6.56175 87.4746 8.20475 87.4746H27.3188C28.9618 87.4746 30.2939 88.8073 30.2939 90.4511C30.2939 92.0949 28.9618 93.4275 27.3188 93.4275H11.1798V103.178C11.1798 119.13 24.1475 132.108 40.087 132.108C41.73 132.108 43.0628 133.441 43.0628 135.085C43.0628 136.729 41.7316 138.061 40.0884 138.061ZM71.9215 138.061C70.2785 138.061 68.9449 136.729 68.9449 135.085C68.9449 133.441 70.2753 132.109 71.9183 132.109H71.9215C87.86 132.109 100.827 119.131 100.827 103.178V93.4275H84.6879C83.0449 93.4275 81.7129 92.0949 81.7129 90.4511C81.7129 88.8073 83.0449 87.4746 84.6879 87.4746H103.802C105.445 87.4746 106.777 88.8073 106.777 90.4511V103.178C106.777 122.413 91.1409 138.061 71.9215 138.061Z" fill="#FFAA3F"/>
<path d="M84.6607 81.0986H27.3193C25.6763 81.0986 24.3442 82.4313 24.3442 84.0751V112.768C24.3442 119.077 25.9742 124.37 29.3268 128.949C35.9827 138.04 46.7394 140.749 46.6442 147.798C46.6442 154.901 30.7155 155.452 30.7155 166.966C30.7155 168.61 32.0475 169.943 33.6906 169.943H78.2892C79.9322 169.943 81.2642 168.61 81.2642 166.966C81.2642 155.452 65.3356 154.901 65.3356 147.798C65.2406 140.749 75.9971 138.04 82.653 128.949C86.0056 124.37 87.6355 119.077 87.6355 112.768V84.0751C87.6357 82.4313 86.3037 81.0986 84.6607 81.0986Z" fill="#FFD316"/>
<path d="M81.2642 166.966C81.2642 155.452 65.3356 154.901 65.3356 147.798C65.2406 140.749 75.997 138.04 82.6529 128.949C86.0056 124.37 87.6355 119.077 87.6355 112.768V84.0751C87.6355 82.4313 86.3035 81.0986 84.6605 81.0986H55.9902V169.943H78.2894C79.9322 169.943 81.2642 168.61 81.2642 166.966Z" fill="#FFAA3F"/>
<path d="M73.9724 106.922C73.1372 104.351 70.8542 102.587 68.156 102.43L63.6862 102.169L62.0576 97.997C61.0743 95.4783 58.6927 93.8506 55.99 93.8506C53.2873 93.8506 50.9057 95.4781 49.9224 97.9968L48.2938 102.169L43.824 102.43C41.1258 102.587 38.8428 104.35 38.0076 106.922C37.1724 109.494 37.9836 112.263 40.0743 113.977L43.5372 116.816L42.4035 121.149C41.7192 123.765 42.6897 126.482 44.8765 128.072C47.0632 129.661 49.9462 129.745 52.2212 128.286L55.9902 125.868L59.7592 128.286C62.0342 129.745 64.9172 129.661 67.1039 128.072C69.2907 126.482 70.2612 123.765 69.5769 121.149L68.4432 116.816L71.9061 113.977C73.9962 112.263 74.8076 109.494 73.9724 106.922Z" fill="#FFAA3F"/>
<path d="M67.1037 128.073C69.2905 126.483 70.261 123.766 69.5767 121.15L68.4431 116.817L71.906 113.978C73.9966 112.264 74.8078 109.495 73.9726 106.923C73.1374 104.352 70.8544 102.588 68.1563 102.431L63.6864 102.17L62.0579 97.998C61.0745 95.4793 58.6929 93.8516 55.9902 93.8516V125.869L59.7592 128.287C62.0343 129.746 64.9171 129.662 67.1037 128.073Z" fill="#FF8A53"/>
<path d="M87.8745 179.719H24.1044C22.4614 179.719 21.1294 178.387 21.1294 176.743V166.967C21.1294 165.323 22.4614 163.99 24.1044 163.99H87.8745C89.5175 163.99 90.8495 165.323 90.8495 166.967V176.743C90.8495 178.387 89.5177 179.719 87.8745 179.719Z" fill="#FFAA3F"/>
<path d="M90.8499 176.743V166.967C90.8499 165.323 89.5179 163.99 87.8749 163.99H55.9902V179.719H87.8751C89.5181 179.719 90.8499 178.387 90.8499 176.743Z" fill="#FF8A53"/>
<path d="M94.2176 182.695H17.7616C16.1186 182.695 14.7866 181.362 14.7866 179.719C14.7866 178.075 16.1186 176.742 17.7616 176.742H94.2178C95.8608 176.742 97.1928 178.075 97.1928 179.719C97.1928 181.362 95.8606 182.695 94.2176 182.695Z" fill="#344779"/>
<path d="M97.1932 179.719C97.1932 178.075 95.8612 176.742 94.2182 176.742H55.9902V182.695H94.2184C95.8612 182.695 97.1932 181.362 97.1932 179.719Z" fill="#0C1638"/>
<path d="M38.1405 265V258.352L53.6732 243.97C54.9942 242.692 56.1022 241.541 56.9971 240.518C57.9062 239.496 58.5951 238.494 59.0638 237.514C59.5326 236.52 59.767 235.447 59.767 234.297C59.767 233.018 59.4758 231.918 58.8934 230.994C58.311 230.057 57.5155 229.339 56.507 228.842C55.4985 228.331 54.355 228.075 53.0766 228.075C51.7414 228.075 50.5766 228.345 49.5823 228.885C48.588 229.425 47.8209 230.199 47.2812 231.207C46.7414 232.216 46.4715 233.416 46.4715 234.808H37.7144C37.7144 231.953 38.3607 229.474 39.6533 227.372C40.9459 225.27 42.757 223.643 45.0866 222.493C47.4161 221.342 50.1008 220.767 53.1405 220.767C56.2655 220.767 58.9857 221.321 61.3011 222.429C63.6306 223.523 65.4417 225.043 66.7343 226.989C68.0269 228.935 68.6732 231.165 68.6732 233.679C68.6732 235.327 68.3465 236.953 67.6931 238.558C67.0539 240.163 65.9104 241.946 64.2627 243.906C62.615 245.852 60.2925 248.189 57.2954 250.916L50.9246 257.159V257.457H69.2485V265H38.1405Z" fill="#FFD316"/>
</svg>
