<svg width="370" height="293" viewBox="0 0 370 293" fill="none" xmlns="http://www.w3.org/2000/svg">
<path d="M244 142.212C252.837 142.212 260 149.375 260 158.212V292.986H110V158.212C110 149.375 117.163 142.212 126 142.212H244Z" fill="#FF6C6C"/>
<path d="M244 142.212C252.837 142.212 260 149.375 260 158.212V292.285H185V142.212H244Z" fill="#E63950"/>
<path d="M0 198.946C0 190.11 7.16344 182.946 16 182.946H110V293H16C7.16344 293 0 285.837 0 277V198.946Z" fill="#E63950"/>
<path d="M370 222.529C370 213.693 362.837 206.529 354 206.529H260V292.285H354C362.837 292.285 370 285.122 370 276.285V222.529Z" fill="#AE2538"/>
<path d="M305.164 178.219H305.163C292.942 178.219 283 168.269 283 156.039V147.947C283 146.902 283.847 146.055 284.892 146.055H297.045C298.089 146.055 298.936 146.902 298.936 147.947C298.936 148.992 298.089 149.84 297.045 149.84H286.783V156.039C286.783 166.182 295.028 174.434 305.163 174.434C306.207 174.434 307.055 175.281 307.055 176.326C307.055 177.371 306.208 178.219 305.164 178.219ZM325.404 178.219C324.359 178.219 323.511 177.371 323.511 176.326C323.511 175.281 324.357 174.434 325.402 174.434H325.404C335.538 174.434 343.782 166.182 343.782 156.039V149.84H333.521C332.476 149.84 331.629 148.992 331.629 147.947C331.629 146.902 332.476 146.055 333.521 146.055H345.674C346.718 146.055 347.565 146.902 347.565 147.947V156.039C347.565 168.269 337.624 178.219 325.404 178.219Z" fill="#FFAA3F"/>
<path d="M333.503 142H297.045C296 142 295.153 142.847 295.153 143.892V162.136C295.153 166.147 296.189 169.513 298.321 172.424C302.553 178.204 309.392 179.927 309.332 184.408C309.332 188.925 299.204 189.275 299.204 196.596C299.204 197.641 300.051 198.489 301.096 198.489H329.452C330.497 198.489 331.344 197.641 331.344 196.596C331.344 189.275 321.216 188.925 321.216 184.408C321.156 179.927 327.995 178.204 332.227 172.424C334.358 169.513 335.395 166.147 335.395 162.136V143.892C335.395 142.847 334.548 142 333.503 142Z" fill="#FFD316"/>
<path d="M331.344 196.596C331.344 189.275 321.216 188.925 321.216 184.408C321.156 179.927 327.995 178.204 332.227 172.424C334.359 169.513 335.395 166.147 335.395 162.136V143.892C335.395 142.847 334.548 142 333.503 142H315.274V198.489H329.453C330.497 198.489 331.344 197.641 331.344 196.596Z" fill="#FFAA3F"/>
<path d="M326.708 158.418C326.176 156.783 324.725 155.662 323.009 155.562L320.167 155.397L319.132 152.744C318.507 151.142 316.992 150.107 315.274 150.107C313.556 150.107 312.041 151.142 311.416 152.744L310.381 155.397L307.539 155.562C305.823 155.662 304.372 156.783 303.841 158.418C303.31 160.054 303.825 161.814 305.155 162.904L307.356 164.709L306.636 167.464C306.2 169.128 306.817 170.855 308.208 171.866C309.598 172.876 311.431 172.93 312.878 172.002L315.274 170.465L317.671 172.002C319.117 172.93 320.95 172.877 322.34 171.866C323.731 170.855 324.348 169.128 323.913 167.464L323.192 164.709L325.394 162.904C326.723 161.814 327.239 160.054 326.708 158.418Z" fill="#FFAA3F"/>
<path d="M322.341 171.866C323.731 170.855 324.348 169.128 323.913 167.464L323.192 164.709L325.394 162.904C326.723 161.814 327.239 160.054 326.708 158.418C326.177 156.783 324.725 155.662 323.01 155.562L320.168 155.397L319.132 152.744C318.507 151.142 316.993 150.107 315.274 150.107V170.465L317.671 172.002C319.117 172.93 320.95 172.876 322.341 171.866Z" fill="#FF8A53"/>
<path d="M335.547 204.704H295.001C293.956 204.704 293.109 203.857 293.109 202.811V196.596C293.109 195.55 293.956 194.703 295.001 194.703H335.547C336.592 194.703 337.439 195.55 337.439 196.596V202.811C337.439 203.857 336.592 204.704 335.547 204.704Z" fill="#FFAA3F"/>
<path d="M337.439 202.811V196.596C337.439 195.55 336.592 194.703 335.547 194.703H315.274V204.704H335.547C336.592 204.704 337.439 203.857 337.439 202.811Z" fill="#FF8A53"/>
<path d="M339.58 206.597H290.968C289.923 206.597 289.076 205.75 289.076 204.705C289.076 203.66 289.923 202.812 290.968 202.812H339.58C340.624 202.812 341.471 203.66 341.471 204.705C341.471 205.75 340.624 206.597 339.58 206.597Z" fill="#344779"/>
<path d="M341.472 204.705C341.472 203.66 340.625 202.812 339.58 202.812H315.274V206.597H339.58C340.625 206.597 341.472 205.75 341.472 204.705Z" fill="#0C1638"/>
<path d="M314.391 265.597C311.209 265.597 308.375 265.05 305.889 263.956C303.418 262.848 301.465 261.328 300.03 259.396C298.61 257.45 297.878 255.206 297.835 252.663H307.125C307.182 253.729 307.53 254.666 308.169 255.476C308.823 256.271 309.689 256.889 310.769 257.33C311.848 257.77 313.063 257.99 314.412 257.99C315.818 257.99 317.061 257.741 318.141 257.244C319.22 256.747 320.066 256.058 320.676 255.178C321.287 254.297 321.593 253.281 321.593 252.131C321.593 250.966 321.266 249.936 320.612 249.041C319.973 248.132 319.05 247.422 317.843 246.911C316.649 246.399 315.229 246.143 313.581 246.143H309.512V239.368H313.581C314.973 239.368 316.202 239.126 317.267 238.643C318.347 238.161 319.185 237.493 319.781 236.641C320.378 235.774 320.676 234.766 320.676 233.615C320.676 232.521 320.414 231.562 319.888 230.739C319.377 229.901 318.652 229.247 317.715 228.778C316.791 228.31 315.712 228.075 314.476 228.075C313.226 228.075 312.083 228.303 311.046 228.757C310.009 229.197 309.178 229.83 308.553 230.653C307.928 231.477 307.594 232.443 307.551 233.551H298.709C298.752 231.037 299.469 228.821 300.861 226.903C302.253 224.986 304.128 223.487 306.486 222.408C308.858 221.314 311.536 220.767 314.519 220.767C317.53 220.767 320.165 221.314 322.423 222.408C324.682 223.501 326.436 224.979 327.686 226.839C328.95 228.686 329.575 230.76 329.561 233.061C329.575 235.504 328.816 237.543 327.281 239.176C325.762 240.81 323.78 241.847 321.337 242.287V242.628C324.547 243.04 326.99 244.155 328.666 245.973C330.357 247.777 331.195 250.036 331.181 252.749C331.195 255.234 330.477 257.443 329.029 259.375C327.594 261.307 325.612 262.827 323.084 263.935C320.556 265.043 317.658 265.597 314.391 265.597Z" fill="#FFD316"/>
</svg>
