<svg width="40" height="40" viewBox="0 0 40 40" fill="none" xmlns="http://www.w3.org/2000/svg">
<rect x="0.5" y="0.5" width="39" height="39" fill="#C0D9FE"/>
<rect x="0.5" y="0.5" width="39" height="39" stroke="black"/>
<path d="M24.7343 26.4118V29.6562H23.828C22.0442 29.6562 20.5937 31.1067 20.5937 32.8906V34.9219C20.5937 36.275 21.6937 37.375 23.0468 37.375H24.2187C25.142 37.375 25.8905 36.6264 25.8905 35.7031C25.8905 34.7798 25.142 34.0312 24.2187 34.0312H23.9374V33H28.7187V34.0312H28.4374C27.5141 34.0312 26.7655 34.7798 26.7655 35.7031C26.7655 36.6264 27.5141 37.375 28.4374 37.375H29.6093C30.9624 37.375 32.0624 36.275 32.0624 34.9219V32.8906C32.0624 31.1067 30.6119 29.6562 28.828 29.6562H28.078V24.3593C28.1113 24.3289 28.1445 24.2982 28.1774 24.2673L34.6091 28.3021C37.6524 30.2113 39.5 33.5513 39.5 37.1439V39.5H0.5V37.1439C0.5 33.5513 2.34759 30.2113 5.39071 28.3022C5.39071 28.3022 5.39071 28.3022 5.39071 28.3022L11.8225 24.2673C11.8425 24.2861 11.8626 24.3047 11.8827 24.3233V30.0826C10.481 30.7088 9.49992 32.1153 9.49992 33.75C9.49992 35.9646 11.3009 37.7656 13.5155 37.7656C15.7302 37.7656 17.5312 35.9646 17.5312 33.75C17.5312 32.1458 16.5865 30.7604 15.2265 30.1174V26.3973C16.381 26.8343 17.6166 27.0625 18.8861 27.0625H21.1138C22.369 27.0625 23.591 26.8393 24.7343 26.4118Z" fill="#00395E" stroke="black"/>
<path d="M14.1875 33.75C14.1875 34.12 13.8857 34.4219 13.5156 34.4219C13.1456 34.4219 12.8438 34.12 12.8438 33.75C12.8438 33.38 13.1456 33.0781 13.5156 33.0781C13.8857 33.0781 14.1875 33.38 14.1875 33.75Z" fill="#00395E" stroke="black"/>
<path d="M28.0947 4.6875V11.4421H11.9072V4.6875C11.9072 2.37481 13.782 0.5 16.0947 0.5H23.9072C26.2199 0.5 28.0947 2.37481 28.0947 4.6875ZM18.3291 4.60937V4.89062H18.0479C17.1245 4.89062 16.376 5.63917 16.376 6.5625C16.376 7.48583 17.1245 8.23437 18.0479 8.23437H18.3291V8.51562C18.3291 9.43895 19.0776 10.1875 20.001 10.1875C20.9243 10.1875 21.6729 9.43895 21.6729 8.51562V8.23437H21.9541C22.8774 8.23437 23.626 7.48583 23.626 6.5625C23.626 5.63917 22.8774 4.89062 21.9541 4.89062H21.6729V4.60937C21.6729 3.68604 20.9243 2.9375 20.001 2.9375C19.0776 2.9375 18.3291 3.68604 18.3291 4.60937Z" fill="#00395E" stroke="black"/>
<path d="M21.1149 23.7187H18.8871C15.0322 23.7187 11.9072 20.5937 11.9072 16.7388V14.7858H28.0947V16.7388C28.0947 20.5938 24.9698 23.7187 21.1149 23.7187Z" fill="#00395E" stroke="black"/>
</svg>
