<svg width="99" height="99" viewBox="0 0 99 99" fill="none" xmlns="http://www.w3.org/2000/svg">
<circle cx="49.5" cy="49.5" r="49.5" fill="#4A7AC2"/>
<path d="M38.7494 24.1522L38.2597 22.0855C38.2202 21.9196 38.1483 21.7631 38.0483 21.6249C37.9482 21.4867 37.822 21.3696 37.6767 21.2803C37.5314 21.1909 37.3699 21.131 37.2015 21.1041C37.033 21.0771 36.8609 21.0836 36.695 21.1232C36.5291 21.1627 36.3726 21.2346 36.2344 21.3346C36.0962 21.4346 35.9791 21.5609 35.8898 21.7062C35.8004 21.8515 35.7405 22.013 35.7136 22.1814C35.6866 22.3498 35.6931 22.5219 35.7327 22.6879L37.0256 28.0309C37.1069 28.3632 37.3161 28.65 37.6078 28.8288C37.8994 29.0076 38.2499 29.0641 38.5829 28.9859L43.9308 27.7077C45.6155 27.2963 45.0034 24.7692 43.3187 25.1806L40.7476 25.8026C42.1116 24.0807 43.9573 22.8038 46.0497 22.1346C48.142 21.4655 50.3861 21.4344 52.4962 22.0453C54.6063 22.6562 56.4867 23.8815 57.8979 25.5649C59.3091 27.2484 60.1872 29.3139 60.4202 31.4982C60.5623 33.2711 63.246 32.9821 63.0011 31.2191C62.2519 24.1963 56.2771 18.9659 48.6617 19.0393C44.1953 19.4801 40.9484 21.3999 38.7494 24.1522ZM54.8715 37.0028C53.1183 37.3652 53.75 40.0049 55.4739 39.5299L58.045 38.9079C56.6842 40.636 54.8387 41.9188 52.7446 42.5922C50.6506 43.2655 48.4033 43.2988 46.2903 42.6877C44.1772 42.0766 42.2946 40.849 40.8832 39.1619C39.4718 37.4748 38.5958 35.4049 38.3674 33.2172C38.3588 33.0405 38.3141 32.8675 38.2361 32.7087C38.1582 32.55 38.0486 32.4088 37.9141 32.2939C37.7796 32.1791 37.6231 32.0929 37.4541 32.0407C37.2851 31.9885 37.1072 31.9714 36.9314 31.9905C36.7555 32.0096 36.5855 32.0643 36.4316 32.1515C36.2777 32.2387 36.1432 32.3564 36.0365 32.4974C35.9297 32.6384 35.8529 32.7998 35.8108 32.9716C35.7686 33.1433 35.7621 33.3219 35.7914 33.4963C36.1812 37.0971 37.9826 40.3965 40.8009 42.6713C43.6192 44.9461 47.2244 46.0108 50.8263 45.632C52.6214 45.4388 54.3601 44.8908 55.9416 44.0198C57.523 43.1488 58.9155 41.9722 60.0382 40.5583L60.5378 42.6299C60.8561 44.4419 63.5937 43.7857 63.055 42.0275L61.7768 36.6796C61.6299 36.0625 61.0618 35.6414 60.3174 35.7001L54.8715 37.0028Z" fill="white"/>
<path d="M22.7939 57.5325V66.2598H21.7371V58.47H17.3394V66.2598H16.2825V57.5325H22.7939ZM27.4484 66.3961C26.8575 66.3961 26.339 66.2555 25.893 65.9743C25.4498 65.693 25.1032 65.2995 24.8532 64.7939C24.6061 64.2882 24.4825 63.6973 24.4825 63.0211C24.4825 62.3393 24.6061 61.7441 24.8532 61.2356C25.1032 60.7271 25.4498 60.3322 25.893 60.051C26.339 59.7697 26.8575 59.6291 27.4484 59.6291C28.0393 59.6291 28.5563 59.7697 28.9995 60.051C29.4455 60.3322 29.7921 60.7271 30.0393 61.2356C30.2893 61.7441 30.4143 62.3393 30.4143 63.0211C30.4143 63.6973 30.2893 64.2882 30.0393 64.7939C29.7921 65.2995 29.4455 65.693 28.9995 65.9743C28.5563 66.2555 28.0393 66.3961 27.4484 66.3961ZM27.4484 65.4927C27.8972 65.4927 28.2666 65.3777 28.5563 65.1475C28.8461 64.9174 29.0606 64.6149 29.1998 64.2399C29.339 63.8649 29.4086 63.4586 29.4086 63.0211C29.4086 62.5836 29.339 62.176 29.1998 61.7981C29.0606 61.4203 28.8461 61.1149 28.5563 60.8819C28.2666 60.649 27.8972 60.5325 27.4484 60.5325C26.9995 60.5325 26.6302 60.649 26.3404 60.8819C26.0507 61.1149 25.8362 61.4203 25.697 61.7981C25.5578 62.176 25.4882 62.5836 25.4882 63.0211C25.4882 63.4586 25.5578 63.8649 25.697 64.2399C25.8362 64.6149 26.0507 64.9174 26.3404 65.1475C26.6302 65.3777 26.9995 65.4927 27.4484 65.4927ZM35.9892 59.7143V60.6518H32.9551V66.2598H31.9495V59.7143H35.9892ZM39.7765 66.3961C39.1856 66.3961 38.6671 66.2555 38.2211 65.9743C37.7779 65.693 37.4313 65.2995 37.1813 64.7939C36.9342 64.2882 36.8106 63.6973 36.8106 63.0211C36.8106 62.3393 36.9342 61.7441 37.1813 61.2356C37.4313 60.7271 37.7779 60.3322 38.2211 60.051C38.6671 59.7697 39.1856 59.6291 39.7765 59.6291C40.3674 59.6291 40.8845 59.7697 41.3276 60.051C41.7737 60.3322 42.1203 60.7271 42.3674 61.2356C42.6174 61.7441 42.7424 62.3393 42.7424 63.0211C42.7424 63.6973 42.6174 64.2882 42.3674 64.7939C42.1203 65.2995 41.7737 65.693 41.3276 65.9743C40.8845 66.2555 40.3674 66.3961 39.7765 66.3961ZM39.7765 65.4927C40.2254 65.4927 40.5947 65.3777 40.8845 65.1475C41.1742 64.9174 41.3887 64.6149 41.5279 64.2399C41.6671 63.8649 41.7367 63.4586 41.7367 63.0211C41.7367 62.5836 41.6671 62.176 41.5279 61.7981C41.3887 61.4203 41.1742 61.1149 40.8845 60.8819C40.5947 60.649 40.2254 60.5325 39.7765 60.5325C39.3276 60.5325 38.9583 60.649 38.6686 60.8819C38.3788 61.1149 38.1643 61.4203 38.0251 61.7981C37.8859 62.176 37.8163 62.5836 37.8163 63.0211C37.8163 63.4586 37.8859 63.8649 38.0251 64.2399C38.1643 64.6149 38.3788 64.9174 38.6686 65.1475C38.9583 65.3777 39.3276 65.4927 39.7765 65.4927ZM44.2776 66.2598V59.7143H46.9537C47.6583 59.7143 48.2179 59.8734 48.6327 60.1916C49.0475 60.5098 49.2548 60.9302 49.2548 61.4529C49.2548 61.8507 49.137 62.1589 48.9012 62.3777C48.6654 62.5936 48.3628 62.7399 47.9935 62.8166C48.235 62.8507 48.4693 62.9359 48.6966 63.0723C48.9267 63.2086 49.1171 63.3961 49.2676 63.6348C49.4182 63.8706 49.4935 64.1603 49.4935 64.5041C49.4935 64.8393 49.4083 65.139 49.2378 65.4032C49.0673 65.6674 48.823 65.8762 48.5048 66.0297C48.1867 66.1831 47.806 66.2598 47.3628 66.2598H44.2776ZM45.2321 65.3393H47.3628C47.7094 65.3393 47.9807 65.2569 48.1767 65.0922C48.3727 64.9274 48.4708 64.7029 48.4708 64.4189C48.4708 64.0808 48.3727 63.8152 48.1767 63.622C47.9807 63.426 47.7094 63.3279 47.3628 63.3279H45.2321V65.3393ZM45.2321 62.4586H46.9537C47.2236 62.4586 47.4551 62.4217 47.6483 62.3478C47.8415 62.2711 47.9892 62.1632 48.0915 62.024C48.1966 61.8819 48.2492 61.7143 48.2492 61.5211C48.2492 61.2456 48.1341 61.0297 47.904 60.8734C47.6739 60.7143 47.3571 60.6348 46.9537 60.6348H45.2321V62.4586ZM53.6749 66.3961C53.084 66.3961 52.5656 66.2555 52.1195 65.9743C51.6764 65.693 51.3298 65.2995 51.0798 64.7939C50.8326 64.2882 50.709 63.6973 50.709 63.0211C50.709 62.3393 50.8326 61.7441 51.0798 61.2356C51.3298 60.7271 51.6764 60.3322 52.1195 60.051C52.5656 59.7697 53.084 59.6291 53.6749 59.6291C54.2659 59.6291 54.7829 59.7697 55.2261 60.051C55.6721 60.3322 56.0187 60.7271 56.2659 61.2356C56.5159 61.7441 56.6409 62.3393 56.6409 63.0211C56.6409 63.6973 56.5159 64.2882 56.2659 64.7939C56.0187 65.2995 55.6721 65.693 55.2261 65.9743C54.7829 66.2555 54.2659 66.3961 53.6749 66.3961ZM53.6749 65.4927C54.1238 65.4927 54.4931 65.3777 54.7829 65.1475C55.0727 64.9174 55.2872 64.6149 55.4264 64.2399C55.5656 63.8649 55.6352 63.4586 55.6352 63.0211C55.6352 62.5836 55.5656 62.176 55.4264 61.7981C55.2872 61.4203 55.0727 61.1149 54.7829 60.8819C54.4931 60.649 54.1238 60.5325 53.6749 60.5325C53.2261 60.5325 52.8568 60.649 52.567 60.8819C52.2772 61.1149 52.0627 61.4203 51.9235 61.7981C51.7843 62.176 51.7147 62.5836 51.7147 63.0211C51.7147 63.4586 51.7843 63.8649 51.9235 64.2399C52.0627 64.6149 52.2772 64.9174 52.567 65.1475C52.8568 65.3777 53.2261 65.4927 53.6749 65.4927ZM58.176 68.7143V59.7143H59.1476V60.7541H59.2669C59.3408 60.6404 59.4431 60.4956 59.5737 60.3194C59.7073 60.1404 59.8976 59.9814 60.1448 59.8422C60.3948 59.7001 60.7328 59.6291 61.159 59.6291C61.7101 59.6291 62.1959 59.7669 62.6164 60.0424C63.0368 60.318 63.3649 60.7086 63.6007 61.2143C63.8365 61.72 63.9544 62.3166 63.9544 63.0041C63.9544 63.6973 63.8365 64.2981 63.6007 64.8066C63.3649 65.3123 63.0382 65.7044 62.6206 65.9828C62.203 66.2583 61.7215 66.3961 61.176 66.3961C60.7556 66.3961 60.4189 66.3265 60.1661 66.1873C59.9132 66.0453 59.7186 65.8848 59.5823 65.7058C59.4459 65.524 59.3408 65.3734 59.2669 65.2541H59.1817V68.7143H58.176ZM59.1646 62.987C59.1646 63.4814 59.2371 63.9174 59.382 64.2953C59.5269 64.6703 59.7385 64.9643 60.0169 65.1774C60.2953 65.3876 60.6362 65.4927 61.0396 65.4927C61.4601 65.4927 61.811 65.3819 62.0922 65.1603C62.3763 64.9359 62.5894 64.6348 62.7314 64.2569C62.8763 63.8762 62.9487 63.4529 62.9487 62.987C62.9487 62.5268 62.8777 62.112 62.7357 61.7427C62.5965 61.3706 62.3848 61.0765 62.1007 60.8606C61.8195 60.6419 61.4658 60.5325 61.0396 60.5325C60.6306 60.5325 60.2868 60.6362 60.0084 60.8436C59.73 61.0481 59.5198 61.335 59.3777 61.7044C59.2357 62.0708 59.1646 62.4984 59.1646 62.987ZM66.4942 64.7768L69.6476 59.7143H70.8067V66.2598H69.801V61.1973L66.6646 66.2598H65.4885V59.7143H66.4942V64.7768ZM71.758 60.6518V59.7143H77.0762V60.6518H74.9285V66.2598H73.9228V60.6518H71.758ZM79.4125 62.0836H81.2875C82.0546 62.0836 82.6412 62.2782 83.0475 62.6674C83.4537 63.0566 83.6568 63.5495 83.6568 64.1461C83.6568 64.5382 83.5659 64.8947 83.3841 65.2157C83.2023 65.5339 82.9352 65.7882 82.583 65.9785C82.2307 66.166 81.7989 66.2598 81.2875 66.2598H78.5432V59.7143H79.5489V65.3223H81.2875C81.6852 65.3223 82.0119 65.2172 82.2676 65.0069C82.5233 64.7967 82.6512 64.5268 82.6512 64.1973C82.6512 63.8507 82.5233 63.568 82.2676 63.3493C82.0119 63.1305 81.6852 63.0211 81.2875 63.0211H79.4125V62.0836ZM29.5668 81.3961C28.9361 81.3961 28.3921 81.2569 27.9347 80.9785C27.4802 80.6973 27.1293 80.3052 26.8822 79.8024C26.6378 79.2967 26.5157 78.7086 26.5157 78.0382C26.5157 77.3677 26.6378 76.7768 26.8822 76.2654C27.1293 75.7512 27.4731 75.3507 27.9134 75.0637C28.3566 74.774 28.8736 74.6291 29.4645 74.6291C29.8055 74.6291 30.1421 74.6859 30.4745 74.7995C30.8069 74.9132 31.1094 75.0978 31.3822 75.3535C31.6549 75.6064 31.8722 75.9416 32.0341 76.3592C32.1961 76.7768 32.277 77.291 32.277 77.9018V78.3279H27.2316V77.4586H31.2543C31.2543 77.0893 31.1805 76.7598 31.0327 76.47C30.8878 76.1802 30.6805 75.9515 30.4106 75.7839C30.1435 75.6163 29.8282 75.5325 29.4645 75.5325C29.064 75.5325 28.7174 75.6319 28.4248 75.8308C28.135 76.0268 27.912 76.2825 27.7557 76.5978C27.5995 76.9132 27.5214 77.2512 27.5214 77.612V78.1916C27.5214 78.6859 27.6066 79.1049 27.777 79.4487C27.9503 79.7896 28.1904 80.0495 28.4972 80.2285C28.804 80.4047 29.1606 80.4927 29.5668 80.4927C29.831 80.4927 30.0697 80.4558 30.2827 80.3819C30.4986 80.3052 30.6847 80.1916 30.841 80.041C30.9972 79.8876 31.118 79.6973 31.2032 79.47L32.1748 79.7427C32.0725 80.0723 31.9006 80.362 31.6591 80.612C31.4177 80.8592 31.1194 81.0524 30.7643 81.1916C30.4091 81.3279 30.01 81.3961 29.5668 81.3961ZM42.7387 80.3223L42.6194 83.1348H41.5796V81.2598H40.7273V80.3223H42.7387ZM33.8069 74.7143H34.8126V80.3223H37.2841V74.7143H38.2898V80.3223H40.7614V74.7143H41.7671V81.2598H33.8069V74.7143ZM46.8754 81.3961C46.2447 81.3961 45.7007 81.2569 45.2433 80.9785C44.7888 80.6973 44.4379 80.3052 44.1907 79.8024C43.9464 79.2967 43.8243 78.7086 43.8243 78.0382C43.8243 77.3677 43.9464 76.7768 44.1907 76.2654C44.4379 75.7512 44.7817 75.3507 45.222 75.0637C45.6652 74.774 46.1822 74.6291 46.7731 74.6291C47.114 74.6291 47.4507 74.6859 47.7831 74.7995C48.1155 74.9132 48.418 75.0978 48.6908 75.3535C48.9635 75.6064 49.1808 75.9416 49.3427 76.3592C49.5047 76.7768 49.5856 77.291 49.5856 77.9018V78.3279H44.5402V77.4586H48.5629C48.5629 77.0893 48.489 76.7598 48.3413 76.47C48.1964 76.1802 47.989 75.9515 47.7192 75.7839C47.4521 75.6163 47.1368 75.5325 46.7731 75.5325C46.3726 75.5325 46.026 75.6319 45.7334 75.8308C45.4436 76.0268 45.2206 76.2825 45.0643 76.5978C44.9081 76.9132 44.83 77.2512 44.83 77.612V78.1916C44.83 78.6859 44.9152 79.1049 45.0856 79.4487C45.2589 79.7896 45.499 80.0495 45.8058 80.2285C46.1126 80.4047 46.4692 80.4927 46.8754 80.4927C47.1396 80.4927 47.3783 80.4558 47.5913 80.3819C47.8072 80.3052 47.9933 80.1916 48.1496 80.041C48.3058 79.8876 48.4265 79.6973 48.5118 79.47L49.4834 79.7427C49.3811 80.0723 49.2092 80.362 48.9677 80.612C48.7263 80.8592 48.428 81.0524 48.0729 81.1916C47.7177 81.3279 47.3186 81.3961 46.8754 81.3961ZM54.4905 83.7143V74.7143H55.4621V75.7541H55.5814C55.6552 75.6404 55.7575 75.4956 55.8882 75.3194C56.0217 75.1404 56.2121 74.9814 56.4592 74.8422C56.7092 74.7001 57.0473 74.6291 57.4734 74.6291C58.0246 74.6291 58.5104 74.7669 58.9308 75.0424C59.3513 75.318 59.6794 75.7086 59.9152 76.2143C60.151 76.72 60.2689 77.3166 60.2689 78.0041C60.2689 78.6973 60.151 79.2981 59.9152 79.8066C59.6794 80.3123 59.3527 80.7044 58.9351 80.9828C58.5175 81.2583 58.0359 81.3961 57.4905 81.3961C57.07 81.3961 56.7334 81.3265 56.4805 81.1873C56.2277 81.0453 56.0331 80.8848 55.8967 80.7058C55.7604 80.524 55.6552 80.3734 55.5814 80.2541H55.4961V83.7143H54.4905ZM55.4791 77.987C55.4791 78.4814 55.5515 78.9174 55.6964 79.2953C55.8413 79.6703 56.053 79.9643 56.3314 80.1774C56.6098 80.3876 56.9507 80.4927 57.3541 80.4927C57.7746 80.4927 58.1254 80.3819 58.4067 80.1603C58.6907 79.9359 58.9038 79.6348 59.0459 79.2569C59.1908 78.8762 59.2632 78.4529 59.2632 77.987C59.2632 77.5268 59.1922 77.112 59.0501 76.7427C58.9109 76.3706 58.6993 76.0765 58.4152 75.8606C58.1339 75.6419 57.7802 75.5325 57.3541 75.5325C56.945 75.5325 56.6013 75.6362 56.3229 75.8436C56.0444 76.0481 55.8342 76.335 55.6922 76.7044C55.5501 77.0708 55.4791 77.4984 55.4791 77.987ZM63.7291 81.4132C63.3143 81.4132 62.9379 81.335 62.5998 81.1788C62.2618 81.0197 61.9933 80.791 61.7944 80.4927C61.5956 80.1916 61.4961 79.8279 61.4961 79.4018C61.4961 79.0268 61.57 78.7228 61.7177 78.4899C61.8655 78.2541 62.0629 78.0694 62.3101 77.9359C62.5572 77.8024 62.83 77.7029 63.1282 77.6376C63.4294 77.5694 63.7319 77.5154 64.0359 77.4757C64.4336 77.4245 64.7561 77.3862 65.0033 77.3606C65.2533 77.3322 65.4351 77.2853 65.5487 77.22C65.6652 77.1547 65.7234 77.041 65.7234 76.8791V76.845C65.7234 76.4245 65.6084 76.0978 65.3783 75.8649C65.151 75.6319 64.8058 75.5154 64.3427 75.5154C63.8626 75.5154 63.4862 75.6206 63.2135 75.8308C62.9407 76.041 62.749 76.2654 62.6382 76.5041L61.6836 76.1632C61.8541 75.7654 62.0814 75.4558 62.3655 75.2342C62.6524 75.0098 62.9649 74.8535 63.303 74.7654C63.6439 74.6745 63.9791 74.6291 64.3086 74.6291C64.5189 74.6291 64.7604 74.6547 65.0331 74.7058C65.3086 74.7541 65.5743 74.8549 65.83 75.0083C66.0885 75.1618 66.303 75.3933 66.4734 75.7029C66.6439 76.0126 66.7291 76.4274 66.7291 76.9473V81.2598H65.7234V80.3734H65.6723C65.6041 80.5154 65.4905 80.6674 65.3314 80.8294C65.1723 80.9913 64.9606 81.1291 64.6964 81.2427C64.4322 81.3564 64.1098 81.4132 63.7291 81.4132ZM63.8825 80.5098C64.2802 80.5098 64.6155 80.4316 64.8882 80.2754C65.1638 80.1191 65.3711 79.9174 65.5104 79.6703C65.6524 79.4231 65.7234 79.1632 65.7234 78.8904V77.97C65.6808 78.0211 65.5871 78.068 65.4422 78.1106C65.3001 78.1504 65.1354 78.1859 64.9479 78.2172C64.7632 78.2456 64.5828 78.2711 64.4067 78.2939C64.2334 78.3137 64.0927 78.3308 63.9848 78.345C63.7234 78.3791 63.4791 78.4345 63.2518 78.5112C63.0274 78.585 62.8456 78.6973 62.7064 78.8478C62.57 78.9956 62.5018 79.1973 62.5018 79.4529C62.5018 79.8024 62.6311 80.0666 62.8896 80.2456C63.151 80.4217 63.4819 80.5098 63.8825 80.5098ZM68.1556 79.5893H69.2295C69.2522 79.8848 69.3857 80.1092 69.63 80.2626C69.8772 80.416 70.1982 80.4927 70.5931 80.4927C70.9965 80.4927 71.3417 80.4103 71.6286 80.2456C71.9155 80.0779 72.059 79.8081 72.059 79.4359C72.059 79.2172 72.005 79.0268 71.8971 78.8649C71.7891 78.7001 71.6371 78.5723 71.4411 78.4814C71.2451 78.3904 71.0135 78.345 70.7465 78.345H69.6215V77.4416H70.7465C71.1471 77.4416 71.4425 77.3507 71.6329 77.1689C71.826 76.987 71.9226 76.7598 71.9226 76.487C71.9226 76.1944 71.8189 75.96 71.6116 75.7839C71.4042 75.6049 71.1101 75.5154 70.7295 75.5154C70.3459 75.5154 70.0263 75.6021 69.7707 75.7754C69.515 75.9458 69.38 76.166 69.3658 76.4359H68.309C68.3204 76.0836 68.4283 75.7725 68.6329 75.5027C68.8374 75.2299 69.1158 75.0169 69.4681 74.8635C69.8204 74.7072 70.2238 74.6291 70.6783 74.6291C71.1385 74.6291 71.5377 74.71 71.8758 74.872C72.2167 75.0311 72.4795 75.2484 72.6641 75.524C72.8516 75.7967 72.9454 76.1064 72.9454 76.4529C72.9454 76.8223 72.8417 77.1206 72.6343 77.3478C72.4269 77.5751 72.167 77.737 71.8545 77.8336V77.9018C72.1016 77.9189 72.3161 77.9984 72.4979 78.1404C72.6826 78.2797 72.826 78.4629 72.9283 78.6902C73.0306 78.9146 73.0817 79.1632 73.0817 79.4359C73.0817 79.8336 72.9752 80.1802 72.7621 80.4757C72.5491 80.7683 72.2564 80.9956 71.8843 81.1575C71.5121 81.3166 71.0874 81.3961 70.6101 81.3961C70.1471 81.3961 69.7323 81.3208 69.3658 81.1703C68.9993 81.0169 68.7082 80.8052 68.4922 80.5353C68.2792 80.2626 68.167 79.9473 68.1556 79.5893Z" fill="white"/>
</svg>
