<svg width="208" height="208" viewBox="0 0 208 208" fill="none" xmlns="http://www.w3.org/2000/svg">
<circle cx="104" cy="104" r="104" fill="#4A7AC2"/>
<path d="M81.4126 50.7437L80.3837 46.4016C80.3006 46.053 80.1497 45.7242 79.9395 45.4339C79.7293 45.1436 79.464 44.8976 79.1587 44.7098C78.8534 44.5221 78.5142 44.3963 78.1603 44.3397C77.8064 44.283 77.4449 44.2966 77.0962 44.3797C76.7476 44.4628 76.4188 44.6138 76.1285 44.824C75.8382 45.0342 75.5922 45.2995 75.4045 45.6047C75.2167 45.91 75.0909 46.2493 75.0343 46.6031C74.9777 46.957 74.9913 47.3186 75.0744 47.6672L77.7908 58.8929C77.9616 59.5911 78.4012 60.1936 79.014 60.5694C79.6267 60.9451 80.3631 61.0637 81.0628 60.8994L92.2988 58.2138C95.8384 57.3495 94.5522 52.0402 91.0127 52.9045L85.6107 54.2113C88.4765 50.5935 92.3545 47.9107 96.7505 46.5049C101.146 45.099 105.861 45.0337 110.295 46.3172C114.728 47.6007 118.679 50.175 121.644 53.712C124.609 57.249 126.454 61.5886 126.943 66.1778C127.242 69.9026 132.88 69.2955 132.366 65.5913C130.791 50.8363 118.238 39.8473 102.238 40.0016C92.8545 40.9277 86.0326 44.9611 81.4126 50.7437ZM115.285 77.7431C111.602 78.5045 112.929 84.0505 116.551 83.0524L121.953 81.7457C119.094 85.3765 115.216 88.0717 110.817 89.4863C106.417 90.901 101.695 90.9709 97.256 89.687C92.8165 88.4031 88.861 85.8238 85.8956 82.2792C82.9303 78.7346 81.0899 74.3858 80.6101 69.7894C80.5919 69.4182 80.498 69.0547 80.3342 68.7212C80.1704 68.3876 79.9402 68.091 79.6576 67.8497C79.3751 67.6083 79.0462 67.4273 78.6911 67.3176C78.3361 67.208 77.9623 67.1721 77.5929 67.2121C77.2235 67.2522 76.8661 67.3673 76.5428 67.5504C76.2194 67.7336 75.9369 67.9809 75.7127 68.2772C75.4884 68.5735 75.327 68.9125 75.2385 69.2734C75.1499 69.6343 75.1361 70.0095 75.1979 70.3759C76.0167 77.9412 79.8016 84.8732 85.7228 89.6526C91.644 94.432 99.2186 96.6689 106.786 95.873C110.558 95.4672 114.211 94.3158 117.533 92.4858C120.856 90.6559 123.782 88.1838 126.141 85.2132L127.19 89.5656C127.859 93.3727 133.611 91.9939 132.479 88.3L129.793 77.064C129.485 75.7675 128.291 74.8827 126.727 75.0061L115.285 77.7431Z" fill="white"/>
<path d="M50.6119 119.545V137H48.4982V121.42H39.7028V137H37.5891V119.545H50.6119ZM59.9208 137.273C58.739 137.273 57.7021 136.991 56.81 136.429C55.9237 135.866 55.2305 135.08 54.7305 134.068C54.2362 133.057 53.989 131.875 53.989 130.523C53.989 129.159 54.2362 127.969 54.7305 126.952C55.2305 125.935 55.9237 125.145 56.81 124.582C57.7021 124.02 58.739 123.739 59.9208 123.739C61.1026 123.739 62.1367 124.02 63.0231 124.582C63.9151 125.145 64.6083 125.935 65.1026 126.952C65.6026 127.969 65.8526 129.159 65.8526 130.523C65.8526 131.875 65.6026 133.057 65.1026 134.068C64.6083 135.08 63.9151 135.866 63.0231 136.429C62.1367 136.991 61.1026 137.273 59.9208 137.273ZM59.9208 135.466C60.8185 135.466 61.5572 135.236 62.1367 134.776C62.7163 134.315 63.1452 133.71 63.4237 132.96C63.7021 132.21 63.8413 131.398 63.8413 130.523C63.8413 129.648 63.7021 128.832 63.4237 128.077C63.1452 127.321 62.7163 126.71 62.1367 126.244C61.5572 125.778 60.8185 125.545 59.9208 125.545C59.0231 125.545 58.2844 125.778 57.7049 126.244C57.1254 126.71 56.6964 127.321 56.418 128.077C56.1396 128.832 56.0004 129.648 56.0004 130.523C56.0004 131.398 56.1396 132.21 56.418 132.96C56.6964 133.71 57.1254 134.315 57.7049 134.776C58.2844 135.236 59.0231 135.466 59.9208 135.466ZM77.0025 123.909V125.784H70.9343V137H68.9229V123.909H77.0025ZM84.5771 137.273C83.3952 137.273 82.3583 136.991 81.4663 136.429C80.5799 135.866 79.8867 135.08 79.3867 134.068C78.8924 133.057 78.6452 131.875 78.6452 130.523C78.6452 129.159 78.8924 127.969 79.3867 126.952C79.8867 125.935 80.5799 125.145 81.4663 124.582C82.3583 124.02 83.3952 123.739 84.5771 123.739C85.7589 123.739 86.793 124.02 87.6793 124.582C88.5714 125.145 89.2646 125.935 89.7589 126.952C90.2589 127.969 90.5089 129.159 90.5089 130.523C90.5089 131.875 90.2589 133.057 89.7589 134.068C89.2646 135.08 88.5714 135.866 87.6793 136.429C86.793 136.991 85.7589 137.273 84.5771 137.273ZM84.5771 135.466C85.4748 135.466 86.2134 135.236 86.793 134.776C87.3725 134.315 87.8015 133.71 88.0799 132.96C88.3583 132.21 88.4975 131.398 88.4975 130.523C88.4975 129.648 88.3583 128.832 88.0799 128.077C87.8015 127.321 87.3725 126.71 86.793 126.244C86.2134 125.778 85.4748 125.545 84.5771 125.545C83.6793 125.545 82.9407 125.778 82.3612 126.244C81.7816 126.71 81.3526 127.321 81.0742 128.077C80.7958 128.832 80.6566 129.648 80.6566 130.523C80.6566 131.398 80.7958 132.21 81.0742 132.96C81.3526 133.71 81.7816 134.315 82.3612 134.776C82.9407 135.236 83.6793 135.466 84.5771 135.466ZM93.5792 137V123.909H98.9315C100.341 123.909 101.46 124.227 102.289 124.864C103.119 125.5 103.534 126.341 103.534 127.386C103.534 128.182 103.298 128.798 102.826 129.236C102.355 129.668 101.75 129.96 101.011 130.114C101.494 130.182 101.963 130.352 102.417 130.625C102.877 130.898 103.258 131.273 103.559 131.75C103.86 132.222 104.011 132.801 104.011 133.489C104.011 134.159 103.841 134.759 103.5 135.287C103.159 135.815 102.67 136.233 102.034 136.54C101.397 136.847 100.636 137 99.7496 137H93.5792ZM95.4883 135.159H99.7496C100.443 135.159 100.985 134.994 101.377 134.665C101.77 134.335 101.966 133.886 101.966 133.318C101.966 132.642 101.77 132.111 101.377 131.724C100.985 131.332 100.443 131.136 99.7496 131.136H95.4883V135.159ZM95.4883 129.398H98.9315C99.4712 129.398 99.9343 129.324 100.321 129.176C100.707 129.023 101.002 128.807 101.207 128.528C101.417 128.244 101.522 127.909 101.522 127.523C101.522 126.972 101.292 126.54 100.832 126.227C100.372 125.909 99.7383 125.75 98.9315 125.75H95.4883V129.398ZM112.374 137.273C111.192 137.273 110.155 136.991 109.263 136.429C108.377 135.866 107.684 135.08 107.184 134.068C106.689 133.057 106.442 131.875 106.442 130.523C106.442 129.159 106.689 127.969 107.184 126.952C107.684 125.935 108.377 125.145 109.263 124.582C110.155 124.02 111.192 123.739 112.374 123.739C113.556 123.739 114.59 124.02 115.476 124.582C116.368 125.145 117.061 125.935 117.556 126.952C118.056 127.969 118.306 129.159 118.306 130.523C118.306 131.875 118.056 133.057 117.556 134.068C117.061 135.08 116.368 135.866 115.476 136.429C114.59 136.991 113.556 137.273 112.374 137.273ZM112.374 135.466C113.272 135.466 114.01 135.236 114.59 134.776C115.169 134.315 115.598 133.71 115.877 132.96C116.155 132.21 116.294 131.398 116.294 130.523C116.294 129.648 116.155 128.832 115.877 128.077C115.598 127.321 115.169 126.71 114.59 126.244C114.01 125.778 113.272 125.545 112.374 125.545C111.476 125.545 110.738 125.778 110.158 126.244C109.578 126.71 109.15 127.321 108.871 128.077C108.593 128.832 108.453 129.648 108.453 130.523C108.453 131.398 108.593 132.21 108.871 132.96C109.15 133.71 109.578 134.315 110.158 134.776C110.738 135.236 111.476 135.466 112.374 135.466ZM121.376 141.909V123.909H123.319V125.989H123.558C123.706 125.761 123.91 125.472 124.172 125.119C124.439 124.761 124.819 124.443 125.314 124.165C125.814 123.881 126.49 123.739 127.342 123.739C128.444 123.739 129.416 124.014 130.257 124.565C131.098 125.116 131.754 125.898 132.225 126.909C132.697 127.92 132.933 129.114 132.933 130.489C132.933 131.875 132.697 133.077 132.225 134.094C131.754 135.105 131.1 135.889 130.265 136.446C129.43 136.997 128.467 137.273 127.376 137.273C126.535 137.273 125.862 137.134 125.356 136.855C124.85 136.571 124.461 136.25 124.189 135.892C123.916 135.528 123.706 135.227 123.558 134.989H123.387V141.909H121.376ZM123.353 130.455C123.353 131.443 123.498 132.315 123.788 133.071C124.078 133.821 124.501 134.409 125.058 134.835C125.615 135.256 126.297 135.466 127.103 135.466C127.944 135.466 128.646 135.244 129.208 134.801C129.777 134.352 130.203 133.75 130.487 132.994C130.777 132.233 130.922 131.386 130.922 130.455C130.922 129.534 130.779 128.705 130.495 127.966C130.217 127.222 129.794 126.634 129.225 126.202C128.663 125.764 127.956 125.545 127.103 125.545C126.285 125.545 125.598 125.753 125.041 126.168C124.484 126.577 124.064 127.151 123.779 127.889C123.495 128.622 123.353 129.477 123.353 130.455ZM138.012 134.034L144.319 123.909H146.637V137H144.626V126.875L138.353 137H136.001V123.909H138.012V134.034ZM148.54 125.784V123.909H159.176V125.784H154.881V137H152.87V125.784H148.54ZM163.849 128.648H167.599C169.133 128.648 170.306 129.037 171.119 129.815C171.931 130.594 172.338 131.58 172.338 132.773C172.338 133.557 172.156 134.27 171.792 134.912C171.429 135.548 170.895 136.057 170.19 136.438C169.485 136.812 168.622 137 167.599 137H162.11V123.909H164.122V135.125H167.599C168.395 135.125 169.048 134.915 169.559 134.494C170.071 134.074 170.326 133.534 170.326 132.875C170.326 132.182 170.071 131.616 169.559 131.179C169.048 130.741 168.395 130.523 167.599 130.523H163.849V128.648ZM64.1577 166.273C62.8963 166.273 61.8082 165.994 60.8935 165.438C59.9844 164.875 59.2827 164.091 58.7884 163.085C58.2997 162.074 58.0554 160.898 58.0554 159.557C58.0554 158.216 58.2997 157.034 58.7884 156.011C59.2827 154.983 59.9702 154.182 60.8509 153.608C61.7372 153.028 62.7713 152.739 63.9531 152.739C64.6349 152.739 65.3082 152.852 65.973 153.08C66.6378 153.307 67.2429 153.676 67.7884 154.188C68.3338 154.693 68.7685 155.364 69.0923 156.199C69.4162 157.034 69.5781 158.062 69.5781 159.284V160.136H59.4872V158.398H67.5327C67.5327 157.659 67.3849 157 67.0895 156.42C66.7997 155.841 66.3849 155.384 65.8452 155.048C65.3111 154.713 64.6804 154.545 63.9531 154.545C63.152 154.545 62.4588 154.744 61.8736 155.142C61.294 155.534 60.848 156.045 60.5355 156.676C60.223 157.307 60.0668 157.983 60.0668 158.705V159.864C60.0668 160.852 60.2372 161.69 60.5781 162.378C60.9247 163.06 61.4048 163.58 62.0185 163.938C62.6321 164.29 63.3452 164.466 64.1577 164.466C64.6861 164.466 65.1634 164.392 65.5895 164.244C66.0213 164.091 66.3935 163.864 66.706 163.562C67.0185 163.256 67.2599 162.875 67.4304 162.42L69.3736 162.966C69.169 163.625 68.8253 164.205 68.3423 164.705C67.8594 165.199 67.2628 165.585 66.5526 165.864C65.8423 166.136 65.044 166.273 64.1577 166.273ZM90.5014 164.125L90.2628 169.75H88.1832V166H86.4787V164.125H90.5014ZM72.6378 152.909H74.6491V164.125H79.5923V152.909H81.6037V164.125H86.5469V152.909H88.5582V166H72.6378V152.909ZM98.7749 166.273C97.5135 166.273 96.4254 165.994 95.5107 165.438C94.6016 164.875 93.8999 164.091 93.4055 163.085C92.9169 162.074 92.6726 160.898 92.6726 159.557C92.6726 158.216 92.9169 157.034 93.4055 156.011C93.8999 154.983 94.5874 154.182 95.468 153.608C96.3544 153.028 97.3885 152.739 98.5703 152.739C99.2521 152.739 99.9254 152.852 100.59 153.08C101.255 153.307 101.86 153.676 102.406 154.188C102.951 154.693 103.386 155.364 103.71 156.199C104.033 157.034 104.195 158.062 104.195 159.284V160.136H94.1044V158.398H102.15C102.15 157.659 102.002 157 101.707 156.42C101.417 155.841 101.002 155.384 100.462 155.048C99.9283 154.713 99.2976 154.545 98.5703 154.545C97.7692 154.545 97.076 154.744 96.4908 155.142C95.9112 155.534 95.4652 156.045 95.1527 156.676C94.8402 157.307 94.6839 157.983 94.6839 158.705V159.864C94.6839 160.852 94.8544 161.69 95.1953 162.378C95.5419 163.06 96.022 163.58 96.6357 163.938C97.2493 164.29 97.9624 164.466 98.7749 164.466C99.3033 164.466 99.7805 164.392 100.207 164.244C100.638 164.091 101.011 163.864 101.323 163.562C101.636 163.256 101.877 162.875 102.048 162.42L103.991 162.966C103.786 163.625 103.442 164.205 102.96 164.705C102.477 165.199 101.88 165.585 101.17 165.864C100.46 166.136 99.6612 166.273 98.7749 166.273ZM114.005 170.909V152.909H115.948V154.989H116.187C116.335 154.761 116.539 154.472 116.8 154.119C117.067 153.761 117.448 153.443 117.942 153.165C118.442 152.881 119.119 152.739 119.971 152.739C121.073 152.739 122.045 153.014 122.886 153.565C123.727 154.116 124.383 154.898 124.854 155.909C125.326 156.92 125.562 158.114 125.562 159.489C125.562 160.875 125.326 162.077 124.854 163.094C124.383 164.105 123.729 164.889 122.894 165.446C122.059 165.997 121.096 166.273 120.005 166.273C119.164 166.273 118.491 166.134 117.985 165.855C117.479 165.571 117.09 165.25 116.817 164.892C116.545 164.528 116.335 164.227 116.187 163.989H116.016V170.909H114.005ZM115.982 159.455C115.982 160.443 116.127 161.315 116.417 162.071C116.707 162.821 117.13 163.409 117.687 163.835C118.244 164.256 118.925 164.466 119.732 164.466C120.573 164.466 121.275 164.244 121.837 163.801C122.406 163.352 122.832 162.75 123.116 161.994C123.406 161.233 123.55 160.386 123.55 159.455C123.55 158.534 123.408 157.705 123.124 156.966C122.846 156.222 122.423 155.634 121.854 155.202C121.292 154.764 120.585 154.545 119.732 154.545C118.914 154.545 118.227 154.753 117.67 155.168C117.113 155.577 116.692 156.151 116.408 156.889C116.124 157.622 115.982 158.477 115.982 159.455ZM132.482 166.307C131.653 166.307 130.9 166.151 130.224 165.838C129.548 165.52 129.011 165.062 128.613 164.466C128.215 163.864 128.016 163.136 128.016 162.284C128.016 161.534 128.164 160.926 128.46 160.46C128.755 159.989 129.15 159.619 129.644 159.352C130.138 159.085 130.684 158.886 131.281 158.756C131.883 158.619 132.488 158.511 133.096 158.432C133.891 158.33 134.536 158.253 135.031 158.202C135.531 158.145 135.894 158.051 136.121 157.92C136.354 157.79 136.471 157.562 136.471 157.239V157.17C136.471 156.33 136.241 155.676 135.781 155.21C135.326 154.744 134.636 154.511 133.71 154.511C132.749 154.511 131.996 154.722 131.451 155.142C130.906 155.562 130.522 156.011 130.3 156.489L128.391 155.807C128.732 155.011 129.187 154.392 129.755 153.949C130.329 153.5 130.954 153.187 131.63 153.011C132.312 152.83 132.982 152.739 133.641 152.739C134.062 152.739 134.545 152.79 135.09 152.892C135.641 152.989 136.173 153.19 136.684 153.497C137.201 153.804 137.63 154.267 137.971 154.886C138.312 155.506 138.482 156.335 138.482 157.375V166H136.471V164.227H136.369C136.232 164.511 136.005 164.815 135.687 165.139C135.369 165.463 134.945 165.739 134.417 165.966C133.888 166.193 133.244 166.307 132.482 166.307ZM132.789 164.5C133.585 164.5 134.255 164.344 134.8 164.031C135.352 163.719 135.766 163.315 136.045 162.821C136.329 162.327 136.471 161.807 136.471 161.261V159.42C136.386 159.523 136.198 159.616 135.908 159.702C135.624 159.781 135.295 159.852 134.92 159.915C134.55 159.972 134.19 160.023 133.837 160.068C133.491 160.108 133.21 160.142 132.994 160.17C132.471 160.239 131.982 160.349 131.528 160.503C131.079 160.651 130.715 160.875 130.437 161.176C130.164 161.472 130.028 161.875 130.028 162.386C130.028 163.085 130.286 163.614 130.803 163.972C131.326 164.324 131.988 164.5 132.789 164.5ZM141.335 162.659H143.483C143.528 163.25 143.795 163.699 144.284 164.006C144.778 164.312 145.42 164.466 146.21 164.466C147.017 164.466 147.707 164.301 148.281 163.972C148.855 163.636 149.142 163.097 149.142 162.352C149.142 161.915 149.034 161.534 148.818 161.21C148.602 160.881 148.298 160.625 147.906 160.443C147.514 160.261 147.051 160.17 146.517 160.17H144.267V158.364H146.517C147.318 158.364 147.909 158.182 148.29 157.818C148.676 157.455 148.869 157 148.869 156.455C148.869 155.869 148.662 155.401 148.247 155.048C147.832 154.69 147.244 154.511 146.483 154.511C145.716 154.511 145.077 154.685 144.565 155.031C144.054 155.372 143.784 155.812 143.756 156.352H141.642C141.665 155.648 141.881 155.026 142.29 154.486C142.699 153.94 143.256 153.514 143.96 153.207C144.665 152.895 145.472 152.739 146.381 152.739C147.301 152.739 148.099 152.901 148.776 153.224C149.457 153.543 149.983 153.977 150.352 154.528C150.727 155.074 150.915 155.693 150.915 156.386C150.915 157.125 150.707 157.722 150.293 158.176C149.878 158.631 149.358 158.955 148.733 159.148V159.284C149.227 159.318 149.656 159.477 150.02 159.761C150.389 160.04 150.676 160.406 150.881 160.861C151.085 161.31 151.188 161.807 151.188 162.352C151.188 163.148 150.974 163.841 150.548 164.432C150.122 165.017 149.537 165.472 148.793 165.795C148.048 166.114 147.199 166.273 146.244 166.273C145.318 166.273 144.489 166.122 143.756 165.821C143.023 165.514 142.44 165.091 142.009 164.551C141.582 164.006 141.358 163.375 141.335 162.659Z" fill="white"/>
</svg>
