<svg width="40" height="40" viewBox="0 0 40 40" fill="none" xmlns="http://www.w3.org/2000/svg">
<rect x="0.5" y="0.5" width="39" height="39" fill="#FFA4B8"/>
<rect x="0.5" y="0.5" width="39" height="39" stroke="black"/>
<mask id="mask0_2541_274" style="mask-type:alpha" maskUnits="userSpaceOnUse" x="2" y="2" width="36" height="36">
<circle cx="20" cy="20" r="18" fill="#D9D9D9"/>
</mask>
<g mask="url(#mask0_2541_274)">
<path d="M16.6056 28.305L16.5168 27.6033C16.4641 27.1868 16.8608 26.8564 17.261 26.9832C19.0089 27.5367 20.8759 27.5273 22.5956 26.9833C22.9963 26.8566 23.3935 27.1862 23.3407 27.6032C23.2553 28.2781 23.2802 28.5316 22.9965 28.7144C21.1303 29.9166 18.7272 29.9165 16.8609 28.7144C16.7193 28.6231 16.6268 28.4722 16.6056 28.305ZM17.0213 31.049L18.0104 37.4689C18.0313 37.6047 18.1002 37.7285 18.2044 37.818C18.3087 37.9074 18.4416 37.9566 18.579 37.9566H21.2785C21.4159 37.9566 21.5487 37.9074 21.653 37.818C21.7573 37.7285 21.8262 37.6047 21.8471 37.4689L22.8362 31.049C22.9018 30.6234 22.4939 30.28 22.0855 30.4163C20.6855 30.8835 19.1718 30.8835 17.7719 30.4163C17.3636 30.2799 16.9557 30.6234 17.0213 31.049ZM25.6405 28.0453C25.4572 28.0454 25.2745 28.0249 25.0959 27.9839C24.7706 27.9093 24.4505 28.1268 24.3997 28.4568L23.0382 37.2937C22.9845 37.6422 23.2541 37.9565 23.6068 37.9565H31.0028C31.1554 37.9565 31.3017 37.8959 31.4096 37.788C31.5175 37.6802 31.5781 37.5338 31.5781 37.3813V33.9828C31.5781 30.7018 28.9218 28.0453 25.6405 28.0453ZM15.4577 28.4567C15.4068 28.126 15.0859 27.9095 14.7599 27.9842C14.5818 28.0249 14.3997 28.0454 14.217 28.0453C10.9359 28.0453 8.27943 30.7016 8.27943 33.9829V37.3813C8.27943 37.5339 8.34004 37.6802 8.44793 37.7881C8.55581 37.896 8.70214 37.9566 8.85471 37.9566H16.2508C16.6034 37.9566 16.873 37.6422 16.8194 37.2937L15.4577 28.4567ZM30.5577 18.0937C29.8142 16.9805 29.4208 15.6768 29.4208 14.322V11.2062C29.4208 6.91699 25.9438 3.43994 21.6546 3.43994H18.2029C13.9137 3.43994 10.4367 6.91699 10.4367 11.2062V14.322C10.4367 15.6725 10.0411 16.9805 9.29185 18.1045C7.31419 21.0741 7.47793 25.0321 9.76185 27.8156C9.94508 28.0389 10.2652 28.0888 10.5111 27.9372C11.5941 27.2693 12.8699 26.8947 14.2169 26.8947C15.1683 26.8947 15.2803 26.0911 14.8447 25.784C12.5717 24.1816 11.0838 21.5365 11.0838 18.5497V14.514C11.0838 13.4732 12.001 12.6659 13.0369 12.8033C16.5031 13.2637 20.0077 12.3624 22.8339 10.1959C23.7446 9.49833 25.0702 9.86802 25.4895 10.9329C25.624 11.2752 25.8893 11.7743 26.3855 12.2079C27.2442 12.9571 27.702 12.7255 28.2703 13.2959C28.5852 13.6116 28.7736 14.0459 28.7736 14.514V18.5496C28.7736 21.5364 27.2859 24.1814 25.013 25.7839C24.5766 26.0915 24.6904 26.8947 25.6405 26.8947C26.9885 26.8947 28.264 27.2697 29.3463 27.9372C29.5921 28.0888 29.9123 28.039 30.0955 27.8157C32.365 25.0486 32.5613 21.088 30.5577 18.0937ZM27.2204 13.9654C25.9394 13.563 24.9146 12.6112 24.4188 11.355C24.2786 10.9985 23.8369 10.8771 23.5336 11.1091C20.4308 13.4878 16.6149 14.4378 12.8852 13.9438C12.542 13.8971 12.2344 14.1659 12.2344 14.514V18.5496C12.2344 22.7923 15.6861 26.2439 19.9287 26.2439C24.1714 26.2439 27.6231 22.7923 27.6231 18.5496V14.514C27.6231 14.2624 27.4598 14.0402 27.2204 13.9654Z" fill="#C7566C"/>
</g>
</svg>
