<svg width="37" height="37" viewBox="0 0 37 37" fill="none" xmlns="http://www.w3.org/2000/svg">
<g clip-path="url(#clip0_1493_81)">
<path fill-rule="evenodd" clip-rule="evenodd" d="M18.5 0C8.29609 0 0 8.29609 0 18.5C0 28.7039 8.29609 37 18.5 37C28.7039 37 37 28.7039 37 18.5C37 8.29609 28.7039 0 18.5 0Z" fill="#4BAE4F"/>
<path d="M14.9373 26.9624C12.5742 24.5993 10.2256 22.2145 7.85527 19.8514C7.59512 19.5913 7.59512 19.1577 7.85527 18.8975L10.5797 16.1731C10.8398 15.9129 11.2734 15.9129 11.5336 16.1731L15.4287 20.0682L25.4447 10.045C25.7121 9.78481 26.1385 9.78481 26.4059 10.045L29.1375 12.7766C29.4049 13.044 29.4049 13.4704 29.1375 13.7305L15.8912 26.9624C15.6311 27.2297 15.2047 27.2297 14.9373 26.9624Z" fill="white"/>
</g>
<defs>
<clipPath id="clip0_1493_81">
<rect width="37" height="37" fill="white"/>
</clipPath>
</defs>
</svg>
