<svg width="113" height="113" viewBox="0 0 113 113" fill="none" xmlns="http://www.w3.org/2000/svg">
<circle cx="56.7002" cy="56.2383" r="55.9238" fill="#6CC456"/>
<g clip-path="url(#clip0_129_727)">
<path fill-rule="evenodd" clip-rule="evenodd" d="M84.3113 40.1213C81.9025 39.4892 76.239 39.4969 67.9547 39.2773C68.3458 37.4697 68.4364 35.8394 68.4364 32.945C68.4364 26.0308 63.3991 19.9414 58.9438 19.9414C55.797 19.9414 53.2032 22.514 53.1628 25.6782C53.1204 29.5592 51.9198 36.2614 45.4546 39.6607C44.9806 39.9112 43.6239 40.5799 43.4255 40.6666L43.5276 40.7534C42.5159 39.8804 41.113 39.2117 39.6735 39.2117H33.8924C30.7051 39.2117 28.1113 41.8055 28.1113 44.9928V75.8253C28.1113 79.0127 30.7051 81.6064 33.8924 81.6064H39.6735C41.9667 81.6064 43.886 80.2209 44.8148 78.2785C44.838 78.2862 44.8784 78.2977 44.9054 78.3016C45.0326 78.3363 45.1829 78.3729 45.366 78.4211C45.4007 78.4307 45.418 78.4345 45.4546 78.4442C46.5646 78.7197 48.7017 79.2304 53.2687 80.2806C54.2477 80.5042 59.4198 81.6064 64.777 81.6064H75.3121C78.5225 81.6064 80.8369 80.3712 82.2147 77.8911C82.234 77.8526 82.6772 76.9874 83.0395 75.8176C83.3112 74.937 83.4114 73.6902 83.0838 72.4261C85.1534 71.0039 85.8202 68.8533 86.2538 67.4543C86.9802 65.1592 86.7625 63.4345 86.2576 62.1993C87.4215 61.1009 88.414 59.4263 88.8321 56.8691C89.0923 55.2851 88.8129 53.6548 88.0825 52.2982C89.1732 51.0726 89.6704 49.531 89.7282 48.105L89.7513 47.7022C89.7648 47.4498 89.7764 47.2937 89.7764 46.7387C89.7764 44.3049 88.0902 41.2004 84.3113 40.1213ZM41.6006 75.8253C41.6006 76.891 40.7392 77.7524 39.6735 77.7524H33.8924C32.8268 77.7524 31.9654 76.891 31.9654 75.8253V44.9928C31.9654 43.9272 32.8268 43.0658 33.8924 43.0658H39.6735C40.7392 43.0658 41.6006 43.9272 41.6006 44.9928V75.8253ZM85.878 47.9508C85.8394 48.9028 85.4405 50.7739 82.0682 50.7739C79.1777 50.7739 78.2142 50.7739 78.2142 50.7739C77.6804 50.7739 77.2507 51.2056 77.2507 51.7374C77.2507 52.2693 77.6804 52.701 78.2142 52.701C78.2142 52.701 79.0582 52.701 81.9488 52.701C84.8393 52.701 85.2189 55.0982 85.032 56.2544C84.7931 57.692 84.1186 60.4091 80.8638 60.4091C77.6129 60.4091 76.2871 60.4091 76.2871 60.4091C75.7534 60.4091 75.3236 60.8388 75.3236 61.3726C75.3236 61.9025 75.7534 62.3361 76.2871 62.3361C76.2871 62.3361 78.5765 62.3361 80.0815 62.3361C83.3343 62.3361 83.0472 64.8162 82.5808 66.2962C81.9661 68.2405 81.5903 70.0443 77.4915 70.0443C76.106 70.0443 74.3485 70.0443 74.3485 70.0443C73.8148 70.0443 73.385 70.474 73.385 71.0078C73.385 71.5377 73.8148 71.9713 74.3485 71.9713C74.3485 71.9713 75.684 71.9713 77.3701 71.9713C79.4783 71.9713 79.5766 73.9658 79.3569 74.6807C79.116 75.4631 78.8308 76.0431 78.8193 76.0701C78.2373 77.1203 77.2988 77.7524 75.3121 77.7524H64.777C59.4853 77.7524 54.2361 76.5518 54.1012 76.521C46.0963 74.6768 45.6743 74.5342 45.1713 74.3916C45.1713 74.3916 43.5411 74.1161 43.5411 72.6939L43.5276 46.0777C43.5276 45.174 44.1038 44.3569 45.0577 44.0698C45.1771 44.0235 45.339 43.9734 45.4546 43.9253C54.2573 40.2793 56.9378 32.286 57.0168 25.7225C57.0284 24.7995 57.7395 23.7955 58.9438 23.7955C60.9807 23.7955 64.5823 27.8846 64.5823 32.945C64.5823 37.514 64.3974 38.3041 62.7979 43.0658C82.0682 43.0658 81.9333 43.3433 83.633 43.7884C85.7412 44.3916 85.9223 46.1375 85.9223 46.7387C85.9223 47.3997 85.903 47.3033 85.878 47.9508Z" fill="white"/>
<path fill-rule="evenodd" clip-rule="evenodd" d="M36.7831 70.043C35.1875 70.043 33.8926 71.3379 33.8926 72.9335C33.8926 74.5291 35.1875 75.8241 36.7831 75.8241C38.3787 75.8241 39.6737 74.5291 39.6737 72.9335C39.6737 71.3379 38.3787 70.043 36.7831 70.043ZM36.7831 73.897C36.2532 73.897 35.8196 73.4635 35.8196 72.9335C35.8196 72.4036 36.2532 71.97 36.7831 71.97C37.3131 71.97 37.7466 72.4036 37.7466 72.9335C37.7466 73.4635 37.3131 73.897 36.7831 73.897Z" fill="white"/>
</g>
<defs>
<clipPath id="clip0_129_727">
<rect width="61.665" height="61.665" fill="white" transform="translate(28.1113 19.9414)"/>
</clipPath>
</defs>
</svg>
