<svg width="65" height="68" viewBox="0 0 65 68" fill="none" xmlns="http://www.w3.org/2000/svg">
<path d="M48.0433 33.913C47.2629 33.913 46.6302 33.2803 46.6302 32.4999C46.6302 31.7195 47.2629 31.0869 48.0433 31.0869C55.8435 31.0776 62.1645 24.7566 62.1738 16.9565V5.65222H49.4564C48.676 5.65222 48.0433 5.01953 48.0433 4.23914C48.0433 3.45874 48.676 2.82605 49.4564 2.82605H63.5869C64.3673 2.82605 65 3.45874 65 4.23914V16.9565C64.989 26.3168 57.4037 33.9022 48.0433 33.913Z" fill="#FFA000"/>
<path d="M16.9565 33.913C7.59625 33.9022 0.0108628 26.3168 0 16.9565V4.23914C0 3.45874 0.63269 2.82605 1.41309 2.82605H15.5434C16.3238 2.82605 16.9565 3.45874 16.9565 4.23914C16.9565 5.01953 16.3238 5.65222 15.5434 5.65222H2.82604V16.9565C2.83545 24.7566 9.15638 31.0776 16.9565 31.087C17.7369 31.087 18.3696 31.7197 18.3696 32.5001C18.3695 33.2803 17.7369 33.913 16.9565 33.913Z" fill="#FFA000"/>
<path d="M41.3371 56.3182L40.5768 55.5382C37.6152 52.4916 36.8012 43.9739 36.7391 40.95C36.7237 40.1806 36.0956 39.5651 35.326 39.5652H29.6738C28.9053 39.5651 28.2777 40.179 28.2607 40.9472C28.2014 43.9711 27.3875 52.4833 24.4229 55.5355L23.6626 56.3155C19.7823 60.3087 16.9563 63.1941 16.9563 66.4131C16.9563 67.1935 17.589 67.8262 18.3694 67.8262H46.6302C47.4106 67.8262 48.0433 67.1935 48.0433 66.4131C48.0434 63.1941 45.2174 60.3086 41.3371 56.3182Z" fill="#FFA000"/>
<path d="M49.4565 0H15.5435C14.7631 0 14.1304 0.63269 14.1304 1.41309V24.0218C14.2628 34.1116 22.41 42.2588 32.5 42.3913C42.5899 42.2588 50.7371 34.1116 50.8696 24.0217V1.41309C50.8696 0.63269 50.2369 0 49.4565 0Z" fill="#FFC107"/>
</svg>
