<svg width="39" height="38" viewBox="0 0 39 38" fill="none" xmlns="http://www.w3.org/2000/svg">
<path d="M18.5489 3.39919C18.8483 2.47788 20.1517 2.47788 20.4511 3.39919L22.874 10.8561C23.5433 12.9162 25.4631 14.3111 27.6292 14.3111H35.4699C36.4387 14.3111 36.8414 15.5507 36.0577 16.1201L29.7145 20.7287C27.962 22.0019 27.2287 24.2588 27.8981 26.3189L30.321 33.7758C30.6204 34.6971 29.5659 35.4633 28.7822 34.8939L22.4389 30.2852C20.6865 29.012 18.3135 29.012 16.5611 30.2852L10.2178 34.8939C9.4341 35.4633 8.37962 34.6971 8.67897 33.7758L11.1019 26.3189C11.7713 24.2588 11.038 22.0019 9.28552 20.7287L2.94227 16.1201C2.15856 15.5507 2.56133 14.3111 3.53005 14.3111H11.3707C13.5369 14.3111 15.4567 12.9163 16.126 10.8561L18.5489 3.39919Z" fill="#D9D9D9" stroke="#FF9900" stroke-width="4"/>
</svg>
