<svg width="144" height="144" viewBox="0 0 144 144" fill="none" xmlns="http://www.w3.org/2000/svg">
<g clip-path="url(#clip0_15_923)">
<path d="M72 144C111.765 144 144 111.765 144 72C144 32.2355 111.765 0 72 0C32.2355 0 0 32.2355 0 72C0 111.765 32.2355 144 72 144Z" fill="#21D0C3"/>
<path d="M50.9693 112.928C50.9693 112.928 45.5349 126.125 45.3085 138.886C53.5629 142.183 62.5686 144 72 144C80.0426 144 87.7759 142.676 94.9981 140.243C94.8991 139.664 94.8038 139.15 94.7132 138.721C93.0156 130.655 92.1659 125.986 92.1659 125.986C92.1659 125.986 93.2977 118.485 92.8029 114.877C92.3074 111.269 92.3783 102.354 93.935 98.2497C95.4914 94.1462 97.7546 82.6847 98.6043 73.9114C99.4531 65.1381 101.575 59.1942 103.982 55.6566C106.388 52.1199 88.6528 46.2564 86.3893 46.8228C84.125 47.3884 79.4934 45.1446 79.4934 45.1446L76.9672 43.1868L74.2548 34.4405C74.2548 34.4405 75.5378 32.7851 76.5894 30.3514C76.5894 30.3514 78.0261 30.1478 78.5559 29.3347C79.0867 28.5208 80.3607 23.5328 80.1484 21.9058C80.0418 21.0876 79.0855 21.1821 78.1605 21.4774C78.1855 16.6503 77.1649 8.66141 70.5128 6.05788C60.7478 2.23766 55.6169 9.28972 55.6169 9.28972C55.6169 9.28972 52.7515 13.288 53.2468 18.099C53.7418 22.9107 53.8836 24.3248 53.8836 24.3248C53.8836 24.3248 51.7998 23.1033 51.6229 25.2262C51.446 27.3491 54.1569 31.6747 54.3693 32.0285C54.5816 32.3823 55.8017 31.7982 55.8017 31.7982C55.8017 31.7982 56.8108 34.8402 57.3764 35.5481C57.9426 36.2551 58.2429 36.3972 58.2429 36.3972C58.2429 36.3972 60.4015 43.9844 60.4015 44.7632C60.4015 45.5414 52.3356 50.7763 50.6371 51.2013C49.8038 51.41 46.5995 51.4139 42.8001 52.3679C39.0004 53.3222 41.1131 57.0738 41.1131 57.0738C41.1131 57.0738 42.5107 66.8728 44.1383 70.6228C45.7656 74.3727 50.0105 84.3483 53.2651 88.3814C56.5192 92.4146 55.0032 100.177 55.0032 100.177L50.9693 112.928Z" fill="#FF5B62"/>
<path d="M69.5396 143.958L69.5661 143.959C66.7598 141.444 67.2227 133.864 67.8774 132.255C66.1731 135.587 66.377 140.048 67.7596 142.875C67.9149 143.192 67.6156 143.577 67.2924 143.847C68.0386 143.896 68.7873 143.933 69.5396 143.958Z" fill="#ED4C54"/>
<path d="M66.5618 61.7349C66.5618 61.7349 63.871 60.3331 63.0225 60.917C62.1745 61.5014 62.7421 62.3581 63.8744 62.7674C65.0076 63.1771 65.4508 63.5017 66.6191 64.1851C67.3163 64.5929 68.5485 64.488 69.2438 64.0783C70.409 63.3917 70.4635 63.1513 71.595 62.7381C72.7262 62.3244 73.2898 61.4671 72.4404 60.8855C71.5897 60.3039 69.0275 61.6103 69.0275 61.6103C68.3224 61.9039 67.2677 61.986 66.5618 61.7349ZM63.331 45.4488C62.6923 45.9303 63.254 46.5879 64.1697 46.8014C65.0852 47.0143 65.4604 47.2255 66.4296 47.6468C67.0078 47.8979 67.7135 48.0701 68.211 47.6901C69.0455 47.0525 69.6853 46.9707 70.5198 46.5479C71.3843 46.1103 71.3692 45.6986 71.0688 45.4297C70.7605 45.1544 70.1367 45.0376 68.699 46.0026C66.958 47.1945 64.1666 44.8194 63.331 45.4488ZM66.2386 49.2733C66.2386 49.2733 63.7948 48.0324 63.0346 48.5668C62.2733 49.102 62.795 49.8706 63.8218 50.2304C64.8498 50.5895 65.2534 50.8795 66.3154 51.4864C66.9487 51.8473 68.0611 51.7421 68.6852 51.366C69.7323 50.7346 69.7776 50.5169 70.796 50.1333C71.8138 49.7503 72.3156 48.9701 71.5418 48.4526C70.7684 47.9345 68.4661 49.1388 68.4661 49.1388C67.8319 49.4094 66.8793 49.4929 66.2386 49.2733ZM66.4192 53.0952C66.4192 53.0952 63.7298 51.6943 62.881 52.279C62.0333 52.8634 62.6006 53.7187 63.7335 54.1276C64.8655 54.538 65.3099 54.8634 66.4782 55.5468C67.174 55.9544 68.4079 55.8497 69.1026 55.4391C70.2686 54.7526 70.3221 54.5127 71.4533 54.0992C72.5847 53.6858 73.1497 52.8271 72.2992 52.2466C71.449 51.6647 68.8866 52.9711 68.8866 52.9711C68.1806 53.2656 67.1259 53.3469 66.4192 53.0952ZM66.6321 57.6213C66.6321 57.6213 63.9408 56.2201 63.0939 56.8046C62.2451 57.3884 62.8127 58.2437 63.9456 58.6538C65.0782 59.0633 65.5217 59.3887 66.6903 60.0721C67.3867 60.4791 68.6197 60.3748 69.3146 59.9647C70.4807 59.2782 70.5347 59.0374 71.6653 58.6243C72.7968 58.2108 73.3607 57.353 72.5113 56.7725C71.6602 56.1909 69.0983 57.497 69.0983 57.497C68.393 57.7904 67.338 57.8719 66.6321 57.6213ZM72.1164 104.836C72.1164 104.836 69.5017 103.306 68.6242 103.848C67.7472 104.39 68.2692 105.273 69.379 105.737C72.664 107.109 72.9495 107.669 73.3267 107.621C73.6771 107.577 74.1068 107.009 77.0909 106.083C78.2426 105.726 78.8501 104.896 78.0308 104.274C77.2118 103.652 74.5861 104.833 74.5861 104.833C73.8669 105.091 72.8086 105.122 72.1164 104.836ZM72.1519 100.894C72.1519 100.894 69.5371 99.3639 68.6604 99.9056C67.7821 100.448 68.3047 101.331 69.415 101.794C70.5243 102.259 70.9509 102.605 72.0821 103.344C72.7566 103.785 73.9941 103.74 74.7093 103.365C75.9099 102.735 75.9752 102.497 77.1266 102.141C78.2781 101.782 78.8858 100.952 78.0666 100.331C77.2478 99.7098 74.6213 100.89 74.6213 100.89C73.9015 101.149 72.8449 101.179 72.1519 100.894ZM72.2649 96.5314C72.2649 96.5314 69.3669 95.5954 68.634 96.3106C67.9013 97.0264 68.6107 97.7762 69.7989 97.9925C70.9869 98.2094 71.4811 98.456 72.7523 98.9361C73.5109 99.2221 74.7073 98.9161 75.3199 98.3967C76.3476 97.527 76.358 97.2818 77.4003 96.6878C78.4426 96.0932 78.8473 95.1547 77.9071 94.7227C76.9666 94.2904 74.6719 96.0018 74.6719 96.0018C74.0295 96.406 73.0046 96.6622 72.2649 96.5314ZM71.1608 91.9709C71.1608 91.9709 68.4698 90.57 67.6218 91.1534C66.7738 91.7386 67.3411 92.5945 68.4737 93.0037C69.6066 93.4135 70.0501 93.7378 71.2184 94.4215C71.9148 94.8296 73.1469 94.7244 73.8428 94.3146C75.0088 93.6283 75.062 93.3876 76.194 92.9739C77.3252 92.5613 77.8891 91.7032 77.0392 91.1221C76.1884 90.5405 73.6267 91.8475 73.6267 91.8475C72.9214 92.14 71.8661 92.2224 71.1608 91.9709ZM69.8867 87.7544C69.8867 87.7544 67.1965 86.3535 66.3488 86.9369C65.4998 87.5213 66.067 88.3774 67.2005 88.7866C68.3331 89.197 68.7766 89.5215 69.9452 90.2053C70.641 90.6128 71.8746 90.5082 72.569 90.0978C73.7353 89.411 73.7887 89.1705 74.9202 88.7574C76.0514 88.3437 76.6159 87.4864 75.7654 86.9051C74.9157 86.3232 72.3538 87.6296 72.3538 87.6296C71.6479 87.9232 70.5923 88.0056 69.8867 87.7544ZM68.9316 83.2294C68.9316 83.2294 66.2414 81.8285 65.3929 82.4121C64.5446 82.9968 65.1116 83.8527 66.2453 84.2622C67.3774 84.6719 67.8212 84.9968 68.9898 85.6805C69.6859 86.0875 70.9186 85.9831 71.6138 85.5728C72.7799 84.8863 72.8333 84.6461 73.9645 84.2326C75.0963 83.8195 75.6602 82.9614 74.8105 82.38C73.9606 81.7984 71.3984 83.1054 71.3984 83.1054C70.6925 83.399 69.6381 83.4794 68.9316 83.2294ZM68.2599 78.7038C68.2599 78.7038 65.5695 77.3029 64.721 77.8862C63.873 78.4709 64.4397 79.3271 65.5729 79.7366C66.7055 80.1461 67.1493 80.4712 68.3173 81.1541C69.0137 81.5619 70.2473 81.4578 70.9425 81.0475C72.1086 80.3609 72.1617 80.1205 73.2932 79.7073C74.4247 79.2936 74.9883 78.4352 74.1392 77.8547C73.2884 77.2728 70.7262 78.5798 70.7262 78.5798C70.0206 78.8734 68.9659 78.955 68.2599 78.7038ZM67.6229 74.316C67.6229 74.316 64.9322 72.9157 64.0837 73.4993C63.2363 74.0834 63.8033 74.9396 64.9361 75.3488C66.069 75.7586 66.5125 76.0828 67.6811 76.7666C68.3772 77.1744 69.6108 77.0695 70.3055 76.66C71.4715 75.9732 71.5247 75.7327 72.6562 75.3198C73.7876 74.9064 74.3521 74.048 73.5019 73.4672C72.6517 72.8853 70.0897 74.1923 70.0897 74.1923C69.3835 74.4854 68.3288 74.5672 67.6229 74.316ZM67.4108 70.133C67.4108 70.133 64.7201 68.7327 63.8722 69.3165C63.0239 69.9004 63.5918 70.7568 64.7241 71.166C65.8564 71.5753 66.2999 71.9007 67.4685 72.5849C68.1657 72.9911 69.3979 72.8867 70.0928 72.4772C71.2589 71.7904 71.3129 71.5494 72.4438 71.1368C73.5756 70.7233 74.1395 69.8655 73.2895 69.2845C72.4396 68.7026 69.8768 70.0093 69.8768 70.0093C69.172 70.3026 68.1168 70.3842 67.4108 70.133ZM66.7387 65.9519C66.7387 65.9519 64.0474 64.551 63.2005 65.1343C62.3526 65.7185 62.9193 66.5749 64.0522 66.9838C65.1848 67.3936 65.6286 67.7182 66.7963 68.4022C67.4935 68.8097 68.7265 68.7048 69.4209 68.2953C70.5876 67.6088 70.6407 67.368 71.7719 66.9546C72.9031 66.5414 73.467 65.6833 72.6176 65.1031C71.768 64.5212 69.2055 65.8279 69.2055 65.8279C68.4996 66.1201 67.4452 66.2028 66.7387 65.9519Z" fill="#ED4C54"/>
<path d="M51.5374 113.449L58.9663 117.765L67.8102 119.887C67.8102 119.887 67.8102 118.826 67.2441 118.225C66.6782 117.623 60.1338 114.758 60.1338 114.758L58.1175 113.343L63.3175 115.254L72.1977 116.209C72.1977 116.209 72.8339 115.502 72.3741 114.758C71.9145 114.016 65.547 112.848 65.547 112.848L59.6034 110.548L58.9312 109.699L64.9094 111.716C64.9094 111.716 70.4993 112.458 71.03 112.246C71.5604 112.034 71.1 110.796 71.1 110.796L64.5548 108.391L59.7609 106.569V105.879L62.503 106.852L68.7122 107.701C68.7122 107.701 69.7379 107.347 68.9946 106.356C68.2518 105.366 62.3261 103.845 62.3261 103.845C62.3261 103.845 61.5831 103.173 57.692 101.156C56.862 100.726 55.9398 100.409 55.0029 100.176L51.5374 113.449Z" fill="#ED4C54"/>
<path d="M42.5908 52.4211C38.698 53.4289 34.2225 55.4454 31.0373 59.6917C31.0373 59.6917 19.7173 66.3419 14.7637 75.1158C9.81084 83.8896 6.69769 86.719 9.95288 90.9645C13.2072 95.2102 40.0222 103.559 41.7201 104.55C43.1997 105.413 45.5791 107.901 46.1663 108.526L51.5368 113.45L55.0029 100.177C51.5483 99.3168 47.8924 99.6014 47.8924 99.6014C47.8924 99.6014 46.9727 99.7431 43.5063 96.9832C40.0387 94.2242 22.7047 84.4603 22.7047 84.4603C22.7047 84.4603 26.1723 82.8324 29.5678 80.7813C32.9639 78.7298 44.1377 70.6239 44.1377 70.6239C44.1377 70.6239 46.3371 66.5604 48.4594 60.9711C50.5834 55.3802 42.5908 52.4211 42.5908 52.4211Z" fill="#FF5B62"/>
<path d="M99.5507 67.4204C100.62 62.1062 102.225 58.2407 103.982 55.6574C106.388 52.1207 119.901 41.0825 121.882 34.1486C123.864 27.2157 127.33 22.2621 128.179 19.786C129.028 17.3093 129.17 10.9418 123.51 10.8006C117.849 10.6588 86.2225 22.4741 86.2225 22.4741L81.7653 23.6067C81.7653 23.6067 79.274 23.933 78.1743 24.9925L77.9076 25.3041L73.6948 30.078L68.1041 33.1155C68.1041 33.1155 64.9918 33.3321 65.1333 34.3938C65.2747 35.4555 68.6472 34.9287 68.6472 34.9287L73.4293 33.3141L69.0308 35.5151C69.0308 35.5151 64.1073 36.2689 63.9661 36.6573C63.8249 37.0457 63.9 38.2514 64.6431 38.1806C65.3861 38.1097 71.5011 37.3655 71.5011 37.3655L75.2864 36.3038L70.758 38.603C70.758 38.603 63.4351 39.4169 63.2582 40.1954C63.0813 40.9739 63.2582 41.7164 63.754 41.8933C64.249 42.0702 71.6071 41.5038 71.6071 41.5038L77.2681 39.2403L72.4896 42.0941L65.8409 43.3086C65.8409 43.3086 65.5445 44.9269 66.6765 45.1384C67.8085 45.3499 73.7738 44.5947 73.7738 44.5947L80.7902 41.5901C80.7902 41.5901 85.4705 36.3808 85.8591 34.3643C86.2478 32.3477 86.623 31.9326 87.5781 31.0838C88.5333 30.235 88.7279 30.6768 88.7279 30.6768L107.3 26.3965C107.3 26.3965 105.142 28.7314 104.116 30.7831C103.09 32.8351 93.0074 36.0177 91.0263 40.5461C87.566 48.4541 85.2803 47.2694 79.4931 45.1454C79.4931 45.1454 74.7433 49.1887 74.7034 50.785C74.4966 58.9154 78.622 80.6122 79.0116 80.8462C79.4781 81.1257 91.9867 85.7635 99.5507 67.4204Z" fill="#FF5B62"/>
<path d="M80.0072 24.0156C79.3426 24.2322 78.6358 24.5472 78.174 24.9921L77.9074 25.3038L73.6945 30.0777L68.5586 32.868C68.1168 33.1079 65.5251 33.1804 64.9356 33.7342C63.261 35.307 68.3021 35.0448 68.8216 34.8693L73.4285 33.3143L69.03 35.5154C69.03 35.5154 63.9419 36.4517 63.8007 36.8403C63.6595 37.229 63.6196 38.2095 64.3627 38.1389C65.1057 38.0683 70.002 37.9504 70.002 37.9504L74.8685 36.4213L74.2539 34.4413C74.2539 34.4413 75.537 32.7858 76.5886 30.3522C76.5886 30.3522 78.0252 30.1486 78.5551 29.3355C78.9306 28.7598 79.677 26.1008 80.0072 24.0156ZM74.8941 36.5031L70.0639 38.9317C70.0639 38.9317 63.4351 39.4169 63.2582 40.1951C63.0813 40.9736 63.4779 41.351 63.9734 41.5279C64.4687 41.7048 71.0407 41.4126 71.0407 41.4126L75.9114 39.7825L74.8941 36.5031ZM75.9814 40.0086L72.4894 42.0941L66.2662 43.2309C65.995 43.2804 65.8027 43.5133 65.8058 43.7889C65.8108 44.2836 65.9486 45.0028 66.6762 45.1386C67.808 45.3498 73.5027 44.2952 73.5027 44.2952L77.0003 43.2132L76.9669 43.1873L75.9814 40.0086Z" fill="#ED4C54"/>
<path d="M59.9462 41.0214C63.6067 41.0214 66.5736 43.9883 66.5736 47.6488C66.5736 51.3092 63.6064 54.2761 59.9462 54.2761C56.2857 54.2761 53.3188 51.3089 53.3188 47.6488C53.3188 43.9888 56.2857 41.0214 59.9462 41.0214ZM59.9462 35.1548C63.3938 35.1548 66.5159 36.5537 68.7772 38.8144L68.7811 38.8183C71.0412 41.0793 72.4407 44.2026 72.4407 47.6493C72.4407 51.0969 71.0418 54.219 68.7811 56.4803L68.7772 56.4842C66.5162 58.7443 63.3938 60.1438 59.9462 60.1438C56.4998 60.1438 53.3765 58.7449 51.1152 56.4842L51.1113 56.4803C48.8512 54.2193 47.4517 51.0969 47.4517 47.6493C47.4517 44.2029 48.8506 41.0796 51.1113 38.8183L51.1152 38.8144C53.3762 36.5537 56.4998 35.1548 59.9462 35.1548ZM67.4213 40.174C65.509 38.2634 62.8664 37.0811 59.9465 37.0811C57.0265 37.0811 54.3839 38.2634 52.4717 40.174C50.5612 42.0862 49.3788 44.7291 49.3788 47.6488C49.3788 50.569 50.5612 53.2113 52.4717 55.1235C54.3839 57.0341 57.0268 58.2164 59.9465 58.2164C62.8667 58.2164 65.509 57.0341 67.4213 55.1235C69.3318 53.2113 70.5142 50.5687 70.5142 47.6488C70.5139 44.7291 69.3318 42.0865 67.4213 40.174Z" fill="#FEFEFE"/>
<path d="M43.128 65.2422C42.9404 66.7671 43.4149 70.5775 42.7576 71.6204C44.4395 74.0886 46.3989 75.8774 48.0544 79.3179C46.2746 75.4173 44.5146 71.4027 43.128 65.2422Z" fill="#ED4C54"/>
<path d="M77.9071 109.567C80.4268 109.567 82.4692 111.61 82.4692 114.129C82.4692 116.649 80.4265 118.691 77.9071 118.691C75.3876 118.691 73.3449 116.649 73.3449 114.129C73.3449 111.61 75.3874 109.567 77.9071 109.567ZM77.9071 105.529C80.2803 105.529 82.4296 106.492 83.986 108.048C85.6046 109.666 86.5074 111.84 86.5074 114.129C86.5074 116.502 85.5444 118.652 83.9883 120.208C82.3694 121.827 80.1965 122.73 77.9068 122.73C75.5342 122.73 73.3843 121.767 71.8279 120.211C70.209 118.592 69.3065 116.419 69.3065 114.129C69.3065 111.757 70.2695 109.607 71.8253 108.05C73.4442 106.432 75.6177 105.529 77.9071 105.529ZM83.0526 108.984C81.7363 107.669 79.9175 106.855 77.9074 106.855C75.8975 106.855 74.0784 107.669 72.7622 108.984C71.447 110.3 70.6331 112.119 70.6331 114.129C70.6331 116.139 71.447 117.958 72.7622 119.274C74.0784 120.589 75.8975 121.403 77.9074 121.403C79.9175 121.403 81.7363 120.589 83.0526 119.274C84.3677 117.958 85.1816 116.139 85.1816 114.129C85.1813 112.119 84.3677 110.3 83.0526 108.984Z" fill="#FEFEFE"/>
<path d="M107.3 26.3964C108.289 26.4476 112.638 25.4998 115.313 23.6427L117.944 21.8154C114.485 25.4554 111.471 26.9547 106.257 27.6162C106.847 26.8869 107.3 26.3964 107.3 26.3964Z" fill="#ED4C54"/>
</g>
<defs>
<clipPath id="clip0_15_923">
<rect width="144" height="144" fill="white"/>
</clipPath>
</defs>
</svg>
