<svg width="144" height="144" viewBox="0 0 144 144" fill="none" xmlns="http://www.w3.org/2000/svg">
<path d="M72 144C111.656 144 144 111.657 144 72C144 32.3432 111.657 0 72 0C32.3432 0 0 32.3432 0 72C0 111.656 32.3432 144 72 144Z" fill="#FF5B62"/>
<path d="M109.465 19.0204H17.8245V137.928H109.465V19.0204Z" fill="#0F7986"/>
<path d="M21.121 23.135H103.379L106.168 134.354H23.9096L21.121 23.135Z" fill="#DCE3DB"/>
<path d="M103.38 23.1354H22.4955V131.621H103.38V23.1354Z" fill="white"/>
<path d="M53.0291 16.13H75.1815C76.7767 16.13 78.0823 17.4356 78.0823 19.0308V28.5528H50.1297V19.0308C50.1297 17.4356 51.4353 16.13 53.0305 16.13C53.0305 16.13 53.0291 16.13 53.0291 16.13Z" fill="#666666"/>
<path d="M49.5306 27.833H78.6811C79.2981 27.833 79.7982 28.3331 79.7982 28.9496C79.7982 29.5664 79.2979 30.0661 78.6811 30.0661H49.5306C48.9136 30.0661 48.4135 29.5661 48.4135 28.9496C48.4135 28.3328 48.9136 27.833 49.5306 27.833Z" fill="#B0B0B0"/>
<path d="M61.1921 13.2396L58.8344 27.8331H57.6211L59.9723 13.2776C59.3035 12.35 58.9643 11.238 58.9643 10.147C58.9643 9.44808 59.1033 8.75311 59.3851 8.11777C59.6694 7.47596 60.0995 6.89517 60.6763 6.42914C62.5118 4.94808 65.6933 4.94696 67.5287 6.42774C68.1067 6.89405 68.5381 7.47736 68.8238 8.12171C69.1057 8.75958 69.246 9.45596 69.246 10.1574C69.246 11.2444 68.9082 12.3514 68.2419 13.2762L70.5932 27.8331H69.3799L67.0222 13.2396C66.987 13.0537 67.0416 12.8734 67.1546 12.7393C67.7509 11.9937 68.0524 11.0675 68.0524 10.1568C68.0524 9.61655 67.9461 9.08358 67.7315 8.60208C67.5208 8.12649 67.2041 7.69786 66.782 7.35643C65.387 6.2303 62.8161 6.23283 61.4222 7.35783C61.0014 7.69702 60.687 8.12424 60.4766 8.59843C60.2634 9.07908 60.1582 9.60896 60.1582 10.1467C60.1582 11.0678 60.4662 12.0044 61.0729 12.7553C61.1871 12.8968 61.2247 13.0748 61.1935 13.2399L61.1921 13.2396Z" fill="#FEFEFE"/>
<path d="M122.045 94.0642L116.816 89.4316L93.7872 115.423L99.0155 120.055L122.045 94.0642Z" fill="#21D0C3"/>
<path d="M93.7862 115.421L99.0149 120.054L92.8133 123.765L90.8494 122.026L93.7862 115.421Z" fill="#FF5B62"/>
<path d="M133.192 73.4315L135.951 75.8764C136.745 76.5804 136.819 77.8055 136.116 78.5992L122.315 94.176C122.279 94.2176 122.217 94.2201 122.176 94.1838L116.678 89.3126C116.637 89.276 116.634 89.2139 116.67 89.1737L130.471 73.5969C131.174 72.8029 132.4 72.7292 133.194 73.4318H133.192V73.4315Z" fill="#FAD24D"/>
<path d="M136.116 78.6004L122.311 94.1811C122.275 94.2177 122.219 94.2213 122.179 94.189L122.175 94.185L121.51 93.5953L136.492 76.6857C136.711 77.3235 136.593 78.0613 136.115 78.5993L136.116 78.6004Z" fill="#EDB937"/>
<path d="M91.3283 122.451L92.3324 123.341L90.2047 125.742C89.9606 126.019 89.5345 126.044 89.2578 125.8C88.981 125.556 88.9563 125.13 89.2004 124.853L91.3283 122.451Z" fill="#21D0C3"/>
<path d="M130.395 73.6796L137.183 79.6927L137.547 80.0161L137.206 80.4017L122.71 96.7629L122.577 96.9122L122.38 96.937L121.085 97.0981C120.531 97.0995 120.375 96.2097 121.014 96.1005L122.111 95.9641L136.132 80.1382L129.711 74.4485L130.395 73.6768V73.6796H130.395Z" fill="white"/>
<path d="M122.044 94.0606L121.396 93.4863L98.3668 119.477L99.0149 120.052L122.044 94.0606Z" fill="#15BDB2"/>
<path d="M54.189 44.953C53.8099 44.953 53.5019 44.645 53.5019 44.2659C53.5019 43.8868 53.8099 43.5788 54.189 43.5788H65.5267L68.0701 37.4135C68.2144 37.0639 68.6143 36.8966 68.9639 37.0408C69.1433 37.1151 69.2744 37.2566 69.3405 37.4228L69.343 37.4214L73.1168 46.9484L76.3281 41.5108C76.5205 41.1845 76.9413 41.0768 77.2672 41.2692C77.3699 41.3305 77.4517 41.4146 77.5088 41.5108L79.3715 44.366L82.071 41.4953C82.3295 41.2199 82.7645 41.207 83.0399 41.4655C83.0919 41.515 83.1347 41.5693 83.1684 41.6292L84.2622 43.5816H98.9645C99.3437 43.5816 99.6516 43.8896 99.6516 44.2687C99.6516 44.6478 99.3437 44.9558 98.9645 44.9558H83.8609V44.9544C83.6207 44.9544 83.3878 44.8284 83.2632 44.6037L82.4293 43.115L79.774 45.939L79.7726 45.9376C79.7349 45.9767 79.6936 46.0127 79.6466 46.0428C79.3296 46.2481 78.905 46.1584 78.6996 45.8414L76.9486 43.1563L73.6048 48.819C73.5308 48.9619 73.4074 49.0789 73.2473 49.1425C72.8952 49.2814 72.495 49.1073 72.356 48.7555L68.69 39.5023L66.636 44.4774C66.5465 44.7527 66.2889 44.953 65.9826 44.953H54.189Z" fill="#15BDB2"/>
<path d="M96.4184 62.4476H30.4113V63.5634H96.4184V62.4476Z" fill="#C2C2C4"/>
<path d="M37.7055 26.8611C34.297 29.8075 30.4827 31.3687 26.1064 31.0166C25.8688 40.815 28.3719 51.8023 37.7055 53.1909C47.039 51.8023 49.5422 40.8164 49.3045 31.0166C44.9283 31.369 41.1142 29.8075 37.7055 26.8611Z" fill="white"/>
<path d="M27.3184 36.5637C27.3366 44.3149 29.2202 54.7046 37.7055 56.101C46.1908 54.7046 48.0743 44.3135 48.0926 36.5637C44.2333 36.5637 40.7922 35.1543 37.7055 32.7108C34.6179 35.1543 31.1765 36.5637 27.3184 36.5637Z" fill="#21D0C3"/>
<path d="M35.8532 37.5848H39.5578V42.5534H44.5267V46.258H39.5578V51.2269H35.8532V46.258H30.8843V42.5534H35.8532V37.5848Z" fill="#FEFEFE"/>
<path d="M96.4184 68.0588H30.4113V69.1746H96.4184V68.0588Z" fill="#C2C2C4"/>
<path d="M96.4184 73.67H30.4113V74.7858H96.4184V73.67Z" fill="#C2C2C4"/>
<path d="M96.4184 79.2812H30.4113V80.397H96.4184V79.2812Z" fill="#C2C2C4"/>
<path d="M96.4184 84.8925H30.4113V86.0082H96.4184V84.8925Z" fill="#C2C2C4"/>
<path d="M96.4184 90.504H30.4113V91.6198H96.4184V90.504Z" fill="#C2C2C4"/>
<path d="M59.4948 95.3966H30.4113V96.5123H59.4948V95.3966Z" fill="#C2C2C4"/>
<path d="M86.4672 124.401H57.3837V125.517H86.4672V124.401Z" fill="#21D0C3"/>
<path d="M72 100.807C74.75 100.807 77.2416 101.922 79.0433 103.725C80.845 105.527 81.961 108.018 81.961 110.768C81.961 113.518 80.8453 116.01 79.0433 117.812C77.2413 119.613 74.75 120.729 72 120.729C69.2499 120.729 66.7583 119.614 64.9566 117.812C63.1538 116.009 62.0389 113.518 62.0389 110.768C62.0389 108.018 63.1535 105.527 64.9566 103.725C66.7594 101.922 69.2499 100.807 72 100.807ZM69.4265 108.018C69.4265 107.261 69.5812 106.652 69.8903 106.188C70.1994 105.724 70.6635 105.423 71.2814 105.285V104.454H72.7208V105.285C73.3497 105.414 73.8211 105.709 74.1355 106.173C74.4499 106.636 74.6072 107.252 74.6072 108.02V108.372H72.9444V107.908C72.9444 107.503 72.8679 107.218 72.7132 107.053C72.5585 106.888 72.3431 106.805 72.0661 106.805C71.789 106.805 71.5736 106.888 71.4192 107.053C71.2645 107.218 71.1869 107.504 71.1869 107.908C71.1869 108.293 71.2724 108.622 71.4428 108.899C71.613 109.176 71.8259 109.434 72.0821 109.675C72.338 109.915 72.612 110.149 72.9056 110.379C73.1992 110.609 73.4732 110.867 73.7291 111.155C73.985 111.443 74.1982 111.776 74.3684 112.154C74.5385 112.532 74.6243 112.987 74.6243 113.52C74.6243 114.288 74.4646 114.906 74.1448 115.375C73.8253 115.844 73.3511 116.143 72.7225 116.27V117.086H71.2831V116.27C70.6438 116.142 70.1659 115.844 69.8515 115.375C69.5371 114.906 69.3799 114.288 69.3799 113.52V112.752H71.0426V113.632C71.0426 114.037 71.1256 114.319 71.2907 114.479C71.4558 114.638 71.6777 114.719 71.9544 114.719C72.2312 114.719 72.4533 114.638 72.6182 114.479C72.7833 114.319 72.8662 114.036 72.8662 113.632C72.8662 113.249 72.7819 112.917 72.6103 112.641C72.4401 112.364 72.2258 112.105 71.971 111.865C71.7151 111.625 71.4411 111.391 71.1475 111.161C70.8539 110.931 70.5799 110.672 70.324 110.385C70.0681 110.097 69.8549 109.764 69.6847 109.386C69.5146 109.008 69.4288 108.552 69.4288 108.02L69.4265 108.018ZM78.2938 104.474C76.6831 102.864 74.4578 101.867 72 101.867C69.5421 101.867 67.3172 102.864 65.7062 104.474C64.0952 106.085 63.099 108.31 63.099 110.768C63.099 113.226 64.0954 115.451 65.7062 117.062C67.3169 118.672 69.5421 119.669 72 119.669C74.4578 119.669 76.6828 118.673 78.2938 117.062C79.9034 115.451 80.901 113.226 80.901 110.768C80.901 108.311 79.9045 106.085 78.2938 104.474Z" fill="#FAD24D"/>
</svg>
