<svg width="40" height="38" viewBox="0 0 40 38" fill="none" xmlns="http://www.w3.org/2000/svg">
<path d="M17.152 2.6029C18.06 -0.139991 21.94 -0.139987 22.848 2.60291L25.3809 10.2539C25.7874 11.4819 26.9353 12.3111 28.2288 12.3111H36.3043C39.2241 12.3111 40.4233 16.0585 38.0461 17.7536L31.61 22.3432C30.5388 23.107 30.0903 24.4796 30.5038 25.7286L32.9848 33.2231C33.8966 35.9772 30.7571 38.2929 28.395 36.6085L21.7418 31.8641C20.6995 31.1209 19.3005 31.1209 18.2582 31.8641L11.605 36.6085C9.24291 38.2929 6.10344 35.9772 7.01518 33.2231L9.49624 25.7286C9.90971 24.4796 9.46119 23.107 8.39003 22.3432L1.95389 17.7536C-0.423339 16.0585 0.775932 12.3111 3.69567 12.3111H11.7712C13.0647 12.3111 14.2126 11.4819 14.6191 10.2539L17.152 2.6029Z" fill="#FF9900"/>
</svg>
